<svg width="744" height="1246" xmlns="http://www.w3.org/2000/svg">

 <metadata id="metadata4448">image/svg+xml</metadata>
 <g>
  <title>background</title>
  <rect fill="#ffffff" id="canvas_background" height="1248" width="746" y="0" x="0"/>
 </g>
 <g>
  <title>Layer 1</title>
  <g id="layer1">
   <path fill="#ff0000" fill-rule="nonzero" stroke-width="13.34501" id="rect855" d="m0,262.48722l744.09448,0l0,984.83092l-744.09448,0l0,-984.83092z"/>
   <g font-style="normal" font-weight="800" font-size="267.97195px" font-family="Raleway" fill="#7d7d7d" stroke-width="22.331px" id="text4305">
    <path fill="#7d7d7d" stroke-width="22.331px" id="path970" d="m53.23805,82.53536l0,108.79662l-43.9474,0l0,-190.26009l34.30041,0l88.69872,111.7443l0,-111.7443l43.9474,0l0,190.26009l-35.3723,0l-87.62683,-108.79662z"/>
    <path fill="#7d7d7d" stroke-width="22.331px" id="path972" d="m296.22582,192.93981q-21.16979,0 -38.58796,-8.30713q-17.41818,-8.30713 -29.74489,-21.70573q-12.32671,-13.66657 -19.29398,-31.08475q-6.6993,-17.41817 -6.6993,-35.90824q0,-18.75804 6.96727,-36.17621q7.23524,-17.41818 19.82993,-30.54881q12.86265,-13.39859 30.28083,-21.16978q17.41817,-8.03916 38.05201,-8.03916q21.16979,0 38.58796,8.30713q17.41818,8.30713 29.74489,21.9737q12.32671,13.66657 19.02601,31.08475q6.6993,17.41818 6.6993,35.3723q0,18.75803 -7.23524,36.17621q-6.96727,17.41818 -19.56196,30.81678q-12.59468,13.13062 -30.01285,21.16978q-17.41818,8.03916 -38.05202,8.03916zm-49.57481,-96.46991q0,10.98685 3.21566,21.43776q3.21566,10.18294 9.37902,18.22209q6.43132,8.03916 15.81034,12.86266q9.37902,4.82349 21.43776,4.82349q12.59468,0 21.9737,-5.09146q9.37902,-5.09147 15.54237,-13.13063q6.16336,-8.30713 9.11105,-18.49006q3.21566,-10.45091 3.21566,-21.16979q0,-10.98685 -3.21566,-21.16978q-3.21566,-10.45091 -9.64699,-18.2221q-6.43133,-8.03915 -15.81035,-12.59468q-9.11104,-4.82349 -21.16978,-4.82349q-12.59468,0 -21.9737,5.09146q-9.11105,4.8235 -15.54237,12.86266q-6.16336,8.03916 -9.37902,18.49006q-2.94769,10.18294 -2.94769,20.90182l0,-0.00001z"/>
    <path fill="#7d7d7d" stroke-width="22.331px" id="path974" d="m437.27955,1.07189l44.75132,135.05786l44.21537,-135.05786l46.35915,0l-72.08446,190.26009l-36.98013,0l-72.88837,-190.26009l46.62712,0z"/>
    <path fill="#7d7d7d" stroke-width="22.331px" id="path976" d="m625.73922,1.07189l39.65985,0l69.40474,190.26009l-45.01929,0l-14.73846,-42.60754l-59.2218,0l-14.47049,42.60754l-45.01929,0l69.40474,-190.26009zm42.0716,117.37172l-22.24167,-67.26097l-22.77762,67.26097l45.01929,0z"/>
   </g>
   <g font-style="normal" font-weight="normal" font-size="829.60364px" font-family="sans-serif" fill="#ffffff" stroke-width="20.74009" id="text853">
    <path fill="#ffffff" stroke-width="20.74009" id="path979" d="m595.24626,928.27688l-71.29406,0l0,122.73921l-122.33413,0l0,-122.73921l-252.76986,0l0,-87.09218l259.65621,-382.39543l115.44778,0l0,372.26843l71.29406,0l0,97.21918zm-193.62819,-97.21918l0,-100.45981q0,-25.11496 2.02539,-72.91438q2.0254,-47.79943 3.24064,-55.49595l-3.24064,0q-14.98795,33.21655 -36.05211,64.81278l-108.56141,164.05736l142.58813,0z"/>
   </g>
  </g>
 </g>
</svg>