<svg width="1945.0000000000002" height="1060" xmlns="http://www.w3.org/2000/svg">

 <metadata id="metadata4448">image/svg+xml</metadata>
 <g>
  <title>background</title>
  <rect fill="#ffffff" id="canvas_background" height="1062" width="1947" y="0" x="0"/>
 </g>
 <g>
  <title>Layer 1</title>
  <g id="layer1">
   <path fill="#ffffff" fill-rule="evenodd" stroke-linecap="round" stroke-linejoin="round" stroke-miterlimit="4" stroke-dashoffset="0" id="rect5139" d="m181.15486,2.63931l1582.72375,0c99.7478,0 180.0493,80.30205 180.0493,180.04942l0,632.48114c0,99.7474 -80.3015,180.04944 -180.0493,180.04944l-1582.72375,0c-99.7474,0 -180.04943,-80.30204 -180.04943,-180.04944l0,-632.48114c0,-99.74737 80.30203,-180.04942 180.04943,-180.04942z"/>
   <path fill="#e63e11" fill-rule="evenodd" stroke-linecap="round" stroke-linejoin="round" stroke-miterlimit="4" stroke-dashoffset="0" id="rect5141" d="m1349.16773,360.42985l363.02978,0l0,586.3148l-363.02978,0l0,-586.3148z"/>
   <path fill="#038141" fill-rule="evenodd" stroke-linecap="round" stroke-linejoin="round" stroke-miterlimit="4" stroke-dashoffset="0" id="rect5143" d="m291.95452,360.42985l363.02999,0l0,586.3148l-363.02999,0l0,-586.3148z"/>
   <path fill="#038141" fill-rule="evenodd" stroke-linecap="round" stroke-linejoin="round" stroke-miterlimit="4" stroke-dashoffset="0" id="rect5145" d="m218.0883,360.42985l90.64758,0c75.44988,0 136.19121,60.74128 136.19121,136.19122l0,313.93237c0,75.44988 -60.74133,136.19121 -136.19121,136.19121l-90.64758,0c-75.44997,0 -136.1912,-60.74133 -136.1912,-136.19121l0,-313.93237c0,-75.44994 60.74123,-136.19122 136.1912,-136.19122z"/>
   <path fill="#ffffff" fill-opacity="0.44606" stroke-width="1px" d="m215.7572,516.64133l55.40668,0l96.96168,265.80222l-62.89409,0l-20.59031,-59.52472l-82.73563,0l-20.21593,59.52472l-62.89399,0l96.96159,-265.80222zm58.77605,163.97382l-31.07271,-93.9667l-31.82138,93.9667l62.89409,0z" id="path5635"/>
   <path fill="#e63e11" fill-rule="evenodd" stroke-linecap="round" stroke-linejoin="round" stroke-miterlimit="4" stroke-dashoffset="0" id="rect5151" d="m1670.02551,360.42985l90.647,0c75.4498,0 136.1917,60.74128 136.1917,136.19122l0,313.93237c0,75.44988 -60.7419,136.19121 -136.1917,136.19121l-90.647,0c-75.44992,0 -136.19182,-60.74133 -136.19182,-136.19121l0,-313.93237c0,-75.44994 60.7419,-136.19122 136.19182,-136.19122z"/>
   <path fill="#ffffff" fill-opacity="0.44606" stroke-width="1px" d="m1808.75431,728.53442l0,53.90913l-186.8108,0l0,-265.80222l183.441,0l0,53.90923l-122.0443,0l0,51.66293l104.8239,0l0,49.79119l-104.8239,0l0,56.52974l125.4141,0z" id="path5631"/>
   <path fill="#7d7d7d" stroke-width="1px" d="m157.08051,165.78681l0,76.82604l-31.03322,0l0,-134.35096l24.22101,0l62.6341,78.90753l0,-78.90753l31.03312,0l0,134.35096l-24.97787,0l-61.87714,-76.82604z" id="path5608"/>
   <path fill="#7d7d7d" stroke-width="1px" d="m327.52936,216.1211q7.94754,0 13.43512,-3.21684q5.48759,-3.40608 8.89369,-8.89366q3.4061,-5.48757 4.73063,-12.48896q1.51381,-7.19062 1.51381,-14.57046l0,-68.68929l31.03322,0l0,68.68929q0,14.00278 -3.5953,26.11329q-3.4061,12.11051 -10.78597,21.19339q-7.19059,9.08287 -18.54424,14.38123q-11.16435,5.10912 -26.68096,5.10912q-16.08428,0 -27.43783,-5.48758q-11.35364,-5.48757 -18.54423,-14.57045q-7.0014,-9.27211 -10.4075,-21.38262q-3.21682,-12.11051 -3.21682,-25.35638l0,-68.68929l31.03322,0l0,68.68929q0,7.7583 1.51381,14.75969q1.51381,7.00139 4.91982,12.48896q3.4061,5.48757 8.7045,8.70443q5.48758,3.21684 13.43503,3.21684z" id="path5610"/>
   <path fill="#7d7d7d" stroke-width="1px" d="m513.36777,135.51053l-40.87295,0l0,107.10232l-31.03322,0l0,-107.10232l-41.06214,0l0,-27.24864l112.96831,0l0,27.24864z" id="path5612"/>
   <path fill="#7d7d7d" stroke-width="1px" d="m528.52369,242.61285l0,-134.35096l60.55252,0q9.46136,0 17.40881,3.97376q8.13682,3.97376 14.00279,10.40747q5.86606,6.43371 9.08288,14.57045q3.4061,8.13675 3.4061,16.46273q0,6.24448 -1.51381,12.11051q-1.51382,5.67679 -4.35225,10.78592q-2.83834,5.10911 -7.0014,9.27211q-3.97367,3.97376 -9.08288,6.81215l29.5194,49.95586l-35.00688,0l-25.73492,-43.33292l-20.24724,0l0,43.33292l-31.03312,0zm31.03312,-70.39234l28.38407,0q5.48749,0 9.46126,-5.10912q3.97377,-5.29834 3.97377,-13.43509q0,-8.32598 -4.54144,-13.24587q-4.54144,-4.9199 -9.83974,-4.9199l-27.43792,0l0,36.70998z" id="path5614"/>
   <path fill="#7d7d7d" stroke-width="1px" d="m655.29076,242.61285l0,-134.35096l31.03321,0l0,134.35096l-31.03321,0z" id="path5616"/>
   <path fill="#7d7d7d" stroke-width="1px" d="m709.55744,204.19983l0,-27.24865l58.28175,0l0,27.24865l-58.28175,0z" id="path5618"/>
   <path fill="#7d7d7d" stroke-width="1px" d="m871.53847,147.62104q-0.56814,-0.75695 -3.97377,-2.8384q-3.40611,-2.08149 -8.51521,-4.35221q-5.10911,-2.27072 -11.16436,-3.97376q-6.05525,-1.70305 -12.1105,-1.70305q-16.65195,0 -16.65195,11.16438q0,3.40609 1.70301,5.6768q1.89229,2.27072 5.29839,4.16299q3.59529,1.70304 8.89359,3.21685q5.29839,1.51381 12.29979,3.40608q9.65055,2.64918 17.4088,5.86604q7.75835,3.02762 13.05665,7.75829q5.48759,4.54144 8.32602,11.16437q3.02763,6.62294 3.02763,15.89505q0,11.3536 -4.35225,19.30112q-4.16296,7.7583 -11.16436,12.67819q-7.0014,4.73066 -16.08427,7.00138q-9.08288,2.0815 -18.73343,2.0815q-7.37987,0 -15.13813,-1.13536q-7.75835,-1.13536 -15.13813,-3.21686q-7.37987,-2.27072 -14.38127,-5.29834q-6.81211,-3.02763 -12.67817,-7.00139l13.62432,-27.05942q0.75657,0.94614 4.91991,3.59531q4.16296,2.64918 10.21822,5.29835q6.24444,2.64917 13.8135,4.73066q7.56907,2.08149 15.32742,2.08149q16.46275,0 16.46275,-10.02901q0,-3.78453 -2.45996,-6.24448q-2.45995,-2.45995 -6.8122,-4.35221q-4.35216,-2.0815 -10.4075,-3.78453q-5.86597,-1.70304 -12.86737,-3.78454q-9.27206,-2.8384 -16.08427,-6.05526q-6.81221,-3.40608 -11.35365,-7.75829q-4.35215,-4.35221 -6.62291,-10.02901q-2.08149,-5.67681 -2.08149,-13.24587q0,-10.5967 3.97378,-18.73344q3.97377,-8.13676 10.78588,-13.62433q6.8122,-5.6768 15.70589,-8.5152q9.08288,-2.8384 19.1119,-2.8384q7.0014,0 13.81351,1.32459q6.8122,1.32458 13.05665,3.40607q6.24444,2.0815 11.54283,4.73067q5.48759,2.64918 10.02903,5.29835l-13.62432,25.73483z" id="path5620"/>
   <path fill="#7d7d7d" stroke-width="1px" d="m899.58831,174.30201q0,-12.11051 4.54144,-24.0318q4.54144,-12.1105 13.24593,-21.57184q8.7044,-9.46133 21.19338,-15.32736q12.48889,-5.86603 28.38397,-5.86603q18.92271,0 32.73622,8.13675q14.0028,8.13674 20.81491,21.19339l-23.84253,16.65195q-2.27068,-5.29835 -5.86607,-8.70443q-3.406,-3.59531 -7.56906,-5.6768q-4.16296,-2.27072 -8.51521,-3.02762q-4.35215,-0.94615 -8.51512,-0.94615q-8.89368,0 -15.5166,3.59531q-6.62292,3.59531 -10.97517,9.2721q-4.35225,5.67681 -6.43373,12.86742q-2.08148,7.19062 -2.08148,14.57045q0,7.94753 2.45996,15.32737q2.45996,7.37984 7.0014,13.05664q4.73063,5.67681 11.16435,9.08289q6.62292,3.21684 14.75966,3.21684q4.16305,0 8.51521,-0.94614q4.54144,-1.13536 8.51521,-3.21686q4.16296,-2.27071 7.56906,-5.6768q3.4061,-3.5953 5.48759,-8.70443l25.35634,14.94891q-3.02763,7.37985 -9.08288,13.24587q-5.86596,5.86603 -13.62432,9.83979q-7.75825,3.97376 -16.46265,6.05526q-8.7045,2.08149 -17.03042,2.08149q-14.57046,0 -26.87025,-5.86603q-12.11051,-6.05526 -21.0041,-15.89504q-8.7045,-9.83979 -13.62432,-22.32876q-4.73072,-12.48896 -4.73072,-25.35637l0,0.00003z" id="path5622"/>
   <path fill="#7d7d7d" stroke-width="1px" d="m1094.81118,243.74821q-14.94894,0 -27.24873,-5.86603q-12.29969,-5.86603 -21.00409,-15.32737q-8.7045,-9.65055 -13.62432,-21.95029q-4.73073,-12.29974 -4.73073,-25.35638q0,-13.24587 4.91992,-25.54561q5.10911,-12.29973 14.00279,-21.57184q9.08288,-9.46133 21.38258,-14.94891q12.29979,-5.6768 26.87025,-5.6768q14.94884,0 27.24863,5.86603q12.2997,5.86603 21.0041,15.51659q8.70449,9.65056 13.43512,21.9503q4.73073,12.29973 4.73073,24.97792q0,13.24587 -5.1092,25.5456q-4.91983,12.29975 -13.81351,21.76108q-8.89369,9.27211 -21.19338,14.9489q-12.29979,5.67681 -26.87016,5.67681zm-35.00699,-68.12162q0,7.7583 2.27068,15.13814q2.27076,7.19062 6.62301,12.86741q4.54144,5.67681 11.16436,9.08289q6.62292,3.40607 15.13813,3.40607q8.89369,0 15.51661,-3.5953q6.62292,-3.5953 10.97516,-9.27211q4.35216,-5.86603 6.43364,-13.05664q2.27077,-7.37984 2.27077,-14.94891q0,-7.7583 -2.27077,-14.94891q-2.27067,-7.37984 -6.81211,-12.86742q-4.54144,-5.6768 -11.16436,-8.89365q-6.43373,-3.40608 -14.94894,-3.40608q-8.89369,0 -15.51661,3.59531q-6.43373,3.40608 -10.97516,9.08288q-4.35216,5.6768 -6.62292,13.05664q-2.08149,7.19062 -2.08149,14.75968z" id="path5624"/>
   <path fill="#7d7d7d" stroke-width="1px" d="m1179.72964,242.61285l0,-134.35096l60.55252,0q9.46136,0 17.4089,3.97376q8.13673,3.97376 14.00279,10.40747q5.86597,6.43371 9.08288,14.57045q3.40601,8.13675 3.40601,16.46273q0,6.24448 -1.51381,12.11051q-1.51382,5.67679 -4.35216,10.78592q-2.83843,5.10911 -7.00139,9.27211q-3.97377,3.97376 -9.08288,6.81215l29.5193,49.95586l-35.00688,0l-25.73483,-43.33292l-20.24733,0l0,43.33292l-31.03312,0zm31.03312,-70.39234l28.38407,0q5.48758,0 9.46135,-5.10912q3.97377,-5.29834 3.97377,-13.43509q0,-8.32598 -4.54144,-13.24587q-4.54143,-4.9199 -9.83983,-4.9199l-27.43792,0l0,36.70998z" id="path5626"/>
   <path fill="#7d7d7d" stroke-width="1px" d="m1400.92087,215.3642l0,27.24865l-94.42416,0l0,-134.35096l92.72107,0l0,27.24864l-61.68786,0l0,26.11329l52.98345,0l0,25.16715l-52.98345,0l0,28.57323l63.39095,0z" id="path5628"/>
   <path fill="#ee8100" fill-rule="evenodd" stroke-linecap="round" stroke-linejoin="round" stroke-miterlimit="4" stroke-dashoffset="0" id="rect5209" d="m457.1871,360.42985l363.03009,0l0,586.3148l-363.03009,0l0,-586.3148z"/>
   <path fill="#ee8100" fill-rule="evenodd" stroke-linecap="round" stroke-linejoin="round" stroke-miterlimit="4" stroke-dashoffset="0" id="rect5211" d="m1171.42647,360.42985l363.02961,0l0,586.3148l-363.02961,0l0,-586.3148z"/>
   <path fill="#ffffff" fill-opacity="0.44606" stroke-width="1px" d="m1237.07377,782.44355l0,-265.80222l99.2079,0q32.94454,0 57.65289,10.4824q24.70836,10.4823 41.18063,28.45201q16.84627,17.96981 25.08293,42.30378q8.61066,23.95958 8.61066,51.28863q0,30.32384 -9.35962,55.0323q-9.35962,24.33397 -26.95457,41.92929q-17.22094,17.22104 -41.92939,26.95467q-24.33397,9.35914 -54.28353,9.35914l-99.2079,0zm169.21502,-133.2754q0,-17.59542 -4.86681,-31.82148q-4.49243,-14.60034 -13.47729,-25.08274q-8.98485,-10.4823 -22.08785,-16.09788q-13.1029,-5.61549 -29.57517,-5.61549l-37.81125,0l0,157.98386l37.81125,0q16.84666,0 29.94956,-5.98988q13.1029,-5.98997 21.71346,-16.47227q8.98486,-10.85678 13.47729,-25.08274q4.86681,-14.60043 4.86681,-31.82138z" id="path5552"/>
   <path fill="#fecb02" fill-rule="evenodd" stroke-linecap="round" stroke-linejoin="round" stroke-miterlimit="4" stroke-dashoffset="0" id="rect5217" d="m788.7288,360.42985l383.32091,0l0,586.3148l-383.32091,0l0,-586.3148z"/>
   <path fill="#85bb2f" fill-rule="evenodd" stroke-linecap="round" stroke-linejoin="round" stroke-miterlimit="4" stroke-dashoffset="0" id="rect5219" d="m807.3346,360.42985l-363.03009,0l0,586.3148l363.03009,0l0,-586.3148z"/>
   <path fill="#ffffff" fill-opacity="0.44606" stroke-width="1px" d="m859.28074,645.05011q0,-23.95959 8.98486,-47.54488q8.98495,-23.95968 26.20589,-42.67817q17.22104,-18.71838 41.9294,-30.32384q24.70835,-11.60545 56.15535,-11.60545q37.43696,0 64.76592,16.09788q27.70334,16.09788 41.18062,41.9293l-47.17049,32.94454q-4.49243,-10.48231 -11.60546,-17.22095q-6.73864,-7.11302 -14.97482,-11.23116q-8.23609,-4.49243 -16.84656,-5.98988q-8.61057,-1.87183 -16.84666,-1.87183q-17.59532,0 -30.69832,7.11303q-13.1029,7.11303 -21.71337,18.3441q-8.61047,11.23107 -12.72861,25.45712q-4.11804,14.22596 -4.11804,28.8264q0,15.7235 4.86681,30.32394q4.86681,14.60034 13.85167,25.83151q9.35924,11.23107 22.08776,17.96971q13.10299,6.36426 29.20087,6.36426q8.23609,0 16.84656,-1.87183q8.98486,-2.24621 16.84666,-6.36426q8.23608,-4.49242 14.97472,-11.23116q6.73865,-7.11293 10.85679,-17.22094l50.16548,29.57516q-5.98997,14.60044 -17.96972,26.2059q-11.60545,11.60545 -26.95466,19.46716q-15.34912,7.86179 -32.57006,11.97984q-17.22104,4.11804 -33.69331,4.11804q-28.82639,0 -53.16046,-11.60546q-23.95958,-11.97984 -41.55491,-31.44699q-17.22104,-19.46726 -26.95467,-44.17561q-9.35924,-24.70836 -9.35924,-50.16548z" id="path5547"/>
   <path fill="#ffffff" fill-opacity="0.44606" stroke-width="1px" d="m755.02179,714.30836q0,17.22104 -7.11303,29.94955q-7.11303,12.72861 -19.46725,21.33909q-12.35413,8.23608 -28.8264,12.72851q-16.47227,4.11804 -34.81637,4.11804l-129.53184,0l0,-265.80222l147.87594,0q13.85167,0 25.08274,5.98997q11.23107,5.98987 19.09287,15.7235q7.8617,9.35924 11.97984,21.71337q4.49243,11.97984 4.49243,24.70845q0,19.09277 -9.73363,35.93942q-9.35924,16.84666 -28.45211,25.45713q22.83653,6.73864 35.93952,23.95958q13.47729,17.22104 13.47729,44.17561zm-62.51971,-12.35413q0,-12.35422 -7.11302,-20.9647q-7.11303,-8.61056 -17.96972,-8.61056l-70.75579,0l0,58.02727l68.13519,0q11.97984,0 19.84155,-7.8617q7.86179,-7.86179 7.86179,-20.59031zm-95.83853,-132.90121l0,55.0323l60.2734,0q10.10801,0 17.9698,-6.73865q7.86171,-6.73864 7.86171,-20.9646q0,-13.10299 -7.11303,-20.21602q-6.73864,-7.11303 -16.47227,-7.11303l-62.51961,0z" id="path5544"/>
   <path fill="#0039ff" fill-opacity="0.62974" fill-rule="evenodd" stroke="#ffffff" stroke-width="61.03179" stroke-linecap="round" stroke-linejoin="round" stroke-miterlimit="4" stroke-dashoffset="0" id="rect5229" d="m227.82926,284.25515l39.3264,0c108.69904,0 196.20775,87.50863 196.20775,196.2077l0,343.94055c0,108.69904 -87.50871,196.20761 -196.20775,196.20761l-39.3264,0c-108.69905,0 -196.20766,-87.50857 -196.20766,-196.20761l0,-343.94055c0,-108.69907 87.50861,-196.2077 196.20766,-196.2077z"/>
   <path fill="#038141" fill-rule="evenodd" stroke-width="15.94488" stroke-linecap="round" stroke-linejoin="round" stroke-miterlimit="4" stroke-dashoffset="0" id="rect5231" d="m227.82926,284.25515l39.3264,0c108.69904,0 196.20775,87.50863 196.20775,196.2077l0,343.94055c0,108.69904 -87.50871,196.20761 -196.20775,196.20761l-39.3264,0c-108.69905,0 -196.20766,-87.50857 -196.20766,-196.20761l0,-343.94055c0,-108.69907 87.50861,-196.2077 196.20766,-196.2077z"/>
   <path fill="#ffffff" stroke-width="1px" d="m213.98882,484.39275l67.00727,0l117.26279,350.43804l-76.06236,0l-24.90135,-78.47846l-100.05822,0l-24.44864,78.47846l-76.06219,0l117.2627,-350.43804zm71.08202,216.18566l-37.57838,-123.88723l-38.48389,123.88723l76.06227,0z" id="path5539"/>
  </g>
 </g>
</svg>