<svg width="1945" height="1060" xmlns="http://www.w3.org/2000/svg">

 <metadata id="metadata4448">image/svg+xml</metadata>
 <g>
  <title>background</title>
  <rect fill="#ffffff" id="canvas_background" height="1062" width="1947" y="-1" x="-1"/>
 </g>
 <g>
  <title>Layer 1</title>
  <g id="layer1">
   <path fill="#ffffff" fill-rule="evenodd" stroke-linecap="round" stroke-linejoin="round" stroke-miterlimit="4" stroke-dashoffset="0" id="rect5333" d="m182.93187,2.13533l1582.72369,0c99.7478,0 180.0493,80.30204 180.0493,180.04943l0,632.48116c0,99.7474 -80.3015,180.04943 -180.0493,180.04943l-1582.72369,0c-99.7474,0 -180.04943,-80.30203 -180.04943,-180.04943l0,-632.48116c0,-99.74739 80.30203,-180.04943 180.04943,-180.04943z"/>
   <path fill="#038141" fill-rule="evenodd" stroke-linecap="round" stroke-linejoin="round" stroke-miterlimit="4" stroke-dashoffset="0" id="rect5335" d="m293.73151,359.92554l363.02998,0l0,586.31477l-363.02998,0l0,-586.31477z"/>
   <path fill="#e63e11" fill-rule="evenodd" stroke-linecap="round" stroke-linejoin="round" stroke-miterlimit="4" stroke-dashoffset="0" id="rect5337" d="m1350.94469,359.92554l363.02977,0l0,586.31477l-363.02977,0l0,-586.31477z"/>
   <path fill="#038141" fill-rule="evenodd" stroke-linecap="round" stroke-linejoin="round" stroke-miterlimit="4" stroke-dashoffset="0" id="rect5339" d="m219.8653,359.92554l90.64758,0c75.44988,0 136.1912,60.74133 136.1912,136.19121l0,313.93236c0,75.44997 -60.74132,136.1912 -136.1912,136.1912l-90.64758,0c-75.44996,0 -136.1912,-60.74123 -136.1912,-136.1912l0,-313.93236c0,-75.44988 60.74124,-136.19121 136.1912,-136.19121z"/>
   <path fill="#ee8100" fill-rule="evenodd" stroke-linecap="round" stroke-linejoin="round" stroke-miterlimit="4" stroke-dashoffset="0" id="rect5341" d="m1173.20343,359.92554l363.0296,0l0,586.31477l-363.0296,0l0,-586.31477z"/>
   <path fill="#ffffff" fill-opacity="0.44606" stroke-width="1px" d="m1202.32741,781.93922l0,-265.80221l99.2079,0q32.94453,0 57.65289,10.4823q24.70835,10.48239 41.18062,28.45211q16.84665,17.96971 25.08274,42.30368q8.61047,23.95968 8.61047,51.28863q0,30.32394 -9.35924,55.03229q-9.35924,24.33397 -26.95457,41.92939q-17.22094,17.22094 -41.92939,26.95457q-24.33397,9.35924 -54.28352,9.35924l-99.2079,0zm169.21501,-133.27549q0,-17.59533 -4.86681,-31.82138q-4.49243,-14.60044 -13.47729,-25.08274q-8.98495,-10.48239 -22.08785,-16.09788q-13.1029,-5.61558 -29.57516,-5.61558l-37.81126,0l0,157.98384l37.81126,0q16.84665,0 29.94955,-5.98987q13.1029,-5.98987 21.71346,-16.47227q8.98486,-10.85669 13.47729,-25.08274q4.86681,-14.60044 4.86681,-31.82138z" id="path5429"/>
   <path fill="#fecb02" fill-rule="evenodd" stroke-linecap="round" stroke-linejoin="round" stroke-miterlimit="4" stroke-dashoffset="0" id="rect5347" d="m790.50577,359.92554l383.3209,0l0,586.31477l-383.3209,0l0,-586.31477z"/>
   <path fill="#85bb2f" fill-rule="evenodd" stroke-linecap="round" stroke-linejoin="round" stroke-miterlimit="4" stroke-dashoffset="0" id="rect5349" d="m809.11158,359.92554l-363.03008,0l0,586.31477l363.03008,0l0,-586.31477z"/>
   <path fill="#ffffff" fill-opacity="0.44606" stroke-width="1px" d="m861.05771,644.54578q0,-23.95968 8.98485,-47.54497q8.98495,-23.95959 26.2059,-42.67807q17.22103,-18.71848 41.92939,-30.32393q24.70835,-11.60546 56.15535,-11.60546q37.43696,0 64.76591,16.09788q27.70334,16.09789 41.18063,41.9294l-47.1705,32.94444q-4.49243,-10.4823 -11.60545,-17.22095q-6.73865,-7.11302 -14.97483,-11.23107q-8.23608,-4.49242 -16.84655,-5.98996q-8.61057,-1.87183 -16.84666,-1.87183q-17.59532,0 -30.69832,7.11302q-13.1029,7.11303 -21.71337,18.3441q-8.61047,11.23107 -12.72861,25.45712q-4.11804,14.22606 -4.11804,28.8265q0,15.72349 4.86681,30.32384q4.86681,14.60044 13.85167,25.83151q9.35924,11.23107 22.08776,17.96971q13.10299,6.36426 29.20087,6.36426q8.23609,0 16.84656,-1.87183q8.98486,-2.24622 16.84665,-6.36426q8.23609,-4.49243 14.97474,-11.23107q6.73863,-7.11303 10.85678,-17.22104l50.16548,29.57526q-5.98997,14.60035 -17.96972,26.2058q-11.60545,11.60546 -26.95467,19.46725q-15.34911,7.86171 -32.57005,11.97975q-17.22104,4.11814 -33.6933,4.11814q-28.8264,0 -53.16046,-11.60546q-23.95959,-11.97984 -41.55492,-31.44709q-17.22104,-19.46716 -26.95465,-44.17551q-9.35924,-24.70845 -9.35925,-50.16548z" id="path5424"/>
   <path fill="#ffffff" fill-opacity="0.44606" stroke-width="1px" d="m737.47398,713.80403q0,17.22094 -7.11303,29.94955q-7.11303,12.72852 -19.46725,21.33899q-12.35413,8.23618 -28.8264,12.72861q-16.47227,4.11804 -34.81637,4.11804l-129.53183,0l0,-265.80221l147.87593,0q13.85167,0 25.08274,5.98987q11.23107,5.98997 19.09287,15.7235q7.8617,9.35924 11.97984,21.71346q4.49243,11.97984 4.49243,24.70836q0,19.09287 -9.73363,35.93942q-9.35924,16.84666 -28.45211,25.45713q22.83653,6.73864 35.93952,23.95968q13.47729,17.22094 13.47729,44.1756zm-62.51971,-12.35422q0,-12.35423 -7.11302,-20.9647q-7.11303,-8.61047 -17.96972,-8.61047l-70.75579,0l0,58.02727l68.13519,0q11.97984,0 19.84154,-7.86179q7.8618,-7.8618 7.8618,-20.59031zm-95.83853,-132.90111l0,55.03229l60.2734,0q10.10801,0 17.9698,-6.73864q7.86171,-6.73864 7.86171,-20.9647q0,-13.1029 -7.11303,-20.21592q-6.73864,-7.11303 -16.47227,-7.11303l-62.51961,0z" id="path5421"/>
   <path fill="#0039ff" fill-opacity="0.62974" fill-rule="evenodd" stroke="#ffffff" stroke-width="61.03179" stroke-linecap="round" stroke-linejoin="round" stroke-miterlimit="4" stroke-dashoffset="0" id="rect5359" d="m1677.88446,283.75117l39.3266,0c108.6992,0 196.2076,87.5086 196.2076,196.20764l0,343.94054c0,108.69904 -87.5084,196.2076 -196.2076,196.2076l-39.3266,0c-108.69909,0 -196.20751,-87.50856 -196.20751,-196.2076l0,-343.94054c0,-108.69904 87.50842,-196.20764 196.20751,-196.20764z"/>
   <path fill="#ffffff" fill-opacity="0.44606" stroke-width="1px" d="m237.4857,516.13701l55.40668,0l96.96168,265.80221l-62.89409,0l-20.59031,-59.52472l-82.73563,0l-20.21592,59.52472l-62.89399,0l96.96158,-265.80221zm58.77605,163.97372l-31.07271,-93.9667l-31.82138,93.9667l62.89409,0z" id="path5417"/>
   <path fill="#e63e11" fill-rule="evenodd" stroke-linecap="round" stroke-linejoin="round" stroke-miterlimit="4" stroke-dashoffset="0" id="rect5365" d="m1671.80236,359.92554l90.6471,0c75.4498,0 136.1917,60.74133 136.1917,136.19121l0,313.93236c0,75.44997 -60.7419,136.1912 -136.1917,136.1912l-90.6471,0c-75.44982,0 -136.19172,-60.74123 -136.19172,-136.1912l0,-313.93236c0,-75.44988 60.7419,-136.19121 136.19172,-136.19121z"/>
   <path fill="#ffffff" fill-opacity="0.44606" stroke-width="1px" d="m1790.95366,728.02999l0,53.90923l-186.8108,0l0,-265.80221l183.441,0l0,53.90914l-122.0444,0l0,51.66301l104.824,0l0,49.7911l-104.824,0l0,56.52973l125.4142,0z" id="path5413"/>
   <path fill="#e63e11" fill-rule="evenodd" stroke-width="15.94488" stroke-linecap="round" stroke-linejoin="round" stroke-miterlimit="4" stroke-dashoffset="0" id="rect5371" d="m1677.88446,283.75117l39.3266,0c108.6992,0 196.2076,87.5086 196.2076,196.20764l0,343.94054c0,108.69904 -87.5084,196.2076 -196.2076,196.2076l-39.3266,0c-108.69909,0 -196.20751,-87.50856 -196.20751,-196.2076l0,-343.94054c0,-108.69904 87.50842,-196.20764 196.20751,-196.20764z"/>
   <path fill="#ffffff" stroke-width="1px" d="m1810.50946,763.25176l0,71.0747l-225.92328,0l0,-350.43803l221.84828,0l0,71.07478l-147.5975,0l0,68.1133l126.7703,0l0,65.64545l-126.7703,0l0,74.5298l151.6725,0z" id="path5409"/>
   <path fill="#7d7d7d" stroke-width="1px" d="m158.85751,165.28282l0,76.82607l-31.03321,0l0,-134.35096l24.22101,0l62.63409,78.90746l0,-78.90746l31.03312,0l0,134.35096l-24.97787,0l-61.87714,-76.82607z" id="path5386"/>
   <path fill="#7d7d7d" stroke-width="1px" d="m329.30636,215.61712q7.94754,0 13.43512,-3.21682q5.48758,-3.4061 8.89369,-8.89368q3.4061,-5.48759 4.73063,-12.48898q1.51381,-7.19059 1.51381,-14.57047l0,-68.68924l31.03321,0l0,68.68924q0,14.0028 -3.59529,26.1133q-3.4061,12.1105 -10.78598,21.19338q-7.19059,9.08288 -18.54423,14.38127q-11.16436,5.10911 -26.68096,5.10911q-16.08428,0 -27.43783,-5.48758q-11.35364,-5.48759 -18.54423,-14.57047q-7.0014,-9.27206 -10.4075,-21.38266q-3.21682,-12.11051 -3.21682,-25.35635l0,-68.68924l31.03322,0l0,68.68924q0,7.75836 1.51381,14.75966q1.51381,7.00139 4.91982,12.48898q3.4061,5.48758 8.7045,8.70449q5.48758,3.21682 13.43503,3.21682z" id="path5388"/>
   <path fill="#7d7d7d" stroke-width="1px" d="m515.14476,135.00656l-40.87295,0l0,107.10233l-31.03321,0l0,-107.10233l-41.06214,0l0,-27.24863l112.9683,0l0,27.24863z" id="path5390"/>
   <path fill="#7d7d7d" stroke-width="1px" d="m530.30068,242.10889l0,-134.35096l60.55252,0q9.46135,0 17.4088,3.97377q8.13683,3.97367 14.00279,10.4074q5.86606,6.43373 9.08288,14.57046q3.4061,8.13673 3.4061,16.46275q0,6.24445 -1.51381,12.11051q-1.51381,5.67677 -4.35225,10.78588q-2.83834,5.1092 -7.00139,9.27216q-3.97368,3.97377 -9.08288,6.81211l29.5194,49.95592l-35.00689,0l-25.73491,-43.333l-20.24724,0l0,43.333l-31.03312,0zm31.03312,-70.39234l28.38406,0q5.48749,0 9.46126,-5.10911q3.97377,-5.29839 3.97377,-13.43513q0,-8.32602 -4.54144,-13.24584q-4.54143,-4.91991 -9.83973,-4.91991l-27.43792,0l0,36.70999z" id="path5392"/>
   <path fill="#7d7d7d" stroke-width="1px" d="m657.06774,242.10889l0,-134.35096l31.03321,0l0,134.35096l-31.03321,0z" id="path5394"/>
   <path fill="#7d7d7d" stroke-width="1px" d="m711.33442,203.69581l0,-27.24864l58.28175,0l0,27.24864l-58.28175,0z" id="path5396"/>
   <path fill="#7d7d7d" stroke-width="1px" d="m873.31544,147.11706q-0.56814,-0.75657 -3.97377,-2.83843q-3.4061,-2.08148 -8.51521,-4.35216q-5.1091,-2.27076 -11.16436,-3.97377q-6.05525,-1.7031 -12.1105,-1.7031q-16.65194,0 -16.65194,11.16436q0,3.40611 1.703,5.67687q1.89229,2.27067 5.2984,4.16296q3.59529,1.70301 8.89359,3.21682q5.29839,1.51381 12.29979,3.4061q9.65054,2.64915 17.4088,5.86606q7.75835,3.02763 13.05665,7.75826q5.48758,4.54144 8.32601,11.16436q3.02763,6.62301 3.02763,15.89508q0,11.35365 -4.35225,19.30109q-4.16296,7.75835 -11.16436,12.67817q-7.00139,4.73073 -16.08427,7.0014q-9.08288,2.08158 -18.73342,2.08158q-7.37988,0 -15.13813,-1.13544q-7.75835,-1.13533 -15.13813,-3.21681q-7.37988,-2.27077 -14.38127,-5.29839q-6.81211,-3.02763 -12.67817,-7.0014l13.62431,-27.05935q0.75658,0.94596 4.91992,3.5953q4.16296,2.64915 10.21821,5.29829q6.24444,2.64925 13.81351,4.73073q7.56906,2.08148 15.32741,2.08148q16.46276,0 16.46276,-10.02902q0,-3.78458 -2.45996,-6.24445q-2.45996,-2.45995 -6.81221,-4.35224q-4.35215,-2.08148 -10.4075,-3.78458q-5.86596,-1.70301 -12.86736,-3.78449q-9.27207,-2.83843 -16.08427,-6.05525q-6.81221,-3.4061 -11.35365,-7.75835q-4.35215,-4.35215 -6.62292,-10.02893q-2.08148,-5.67687 -2.08148,-13.24593q0,-10.59669 3.97377,-18.73342q3.97377,-8.13674 10.78588,-13.62432q6.81221,-5.67678 15.7059,-8.51521q9.08287,-2.83844 19.1119,-2.83844q7.00139,0 13.8135,1.32463q6.81221,1.32462 13.05665,3.4061q6.24444,2.08148 11.54284,4.73063q5.48758,2.64915 10.02902,5.29839l-13.62432,25.73482z" id="path5398"/>
   <path fill="#7d7d7d" stroke-width="1px" d="m901.36528,173.79803q0,-12.11051 4.54144,-24.03182q4.54144,-12.1105 13.24593,-21.57186q8.70441,-9.46135 21.19339,-15.32732q12.48888,-5.86606 28.38396,-5.86606q18.92271,0 32.73622,8.13673q14.00279,8.13674 20.8149,21.19339l-23.84253,16.65203q-2.27067,-5.29839 -5.86606,-8.70449q-3.406,-3.5953 -7.56906,-5.67678q-4.16296,-2.27076 -8.51521,-3.02762q-4.35215,-0.94596 -8.51512,-0.94596q-8.89368,0 -15.5166,3.5953q-6.62292,3.59529 -10.97517,9.27216q-4.35225,5.67677 -6.43373,12.86736q-2.08148,7.19059 -2.08148,14.57046q0,7.94754 2.45996,15.32742q2.45996,7.37978 7.0014,13.05655q4.73063,5.67687 11.16435,9.08297q6.62292,3.21682 14.75966,3.21682q4.16305,0 8.51521,-0.94595q4.54144,-1.13534 8.51521,-3.21682q4.16296,-2.27077 7.56906,-5.67687q3.4061,-3.5953 5.48758,-8.7044l25.35635,14.94894q-3.02763,7.37977 -9.08288,13.24584q-5.86597,5.86606 -13.62432,9.83983q-7.75825,3.97377 -16.46265,6.05525q-8.7045,2.08148 -17.03042,2.08148q-14.57046,0 -26.87025,-5.86606q-12.11051,-6.05525 -21.0041,-15.89499q-8.70449,-9.83983 -13.62431,-22.32881q-4.73073,-12.48898 -4.73073,-25.35634l0,-0.00038z" id="path5400"/>
   <path fill="#7d7d7d" stroke-width="1px" d="m1096.58814,243.24423q-14.94893,0 -27.24872,-5.86606q-12.2997,-5.86606 -21.0041,-15.32732q-8.70449,-9.65055 -13.62431,-21.95034q-4.73073,-12.29969 -4.73073,-25.35634q0,-13.24593 4.91992,-25.54563q5.1091,-12.29969 14.00279,-21.57186q9.08288,-9.46135 21.38257,-14.94893q12.29979,-5.67678 26.87025,-5.67678q14.94884,0 27.24863,5.86606q12.2997,5.86597 21.0041,15.51661q8.70449,9.65054 13.43512,21.95024q4.73073,12.29979 4.73073,24.97796q0,13.24584 -5.1092,25.54563q-4.91982,12.29969 -13.81351,21.76105q-8.89369,9.27206 -21.19338,14.94893q-12.29979,5.67678 -26.87016,5.67678zm-35.00698,-68.12168q0,7.75835 2.27067,15.13823q2.27077,7.19058 6.62302,12.86736q4.54144,5.67677 11.16436,9.08288q6.62292,3.4061 15.13812,3.4061q8.89369,0 15.51661,-3.59529q6.62292,-3.5953 10.97517,-9.27217q4.35215,-5.86596 6.43363,-13.05665q2.27077,-7.37977 2.27077,-14.94884q0,-7.75835 -2.27077,-14.94894q-2.27067,-7.37987 -6.81211,-12.86745q-4.54144,-5.67678 -11.16436,-8.8936q-6.43373,-3.4061 -14.94894,-3.4061q-8.89368,0 -15.5166,3.5953q-6.43373,3.4061 -10.97517,9.08287q-4.35215,5.67687 -6.62292,13.05665q-2.08148,7.19059 -2.08148,14.75965z" id="path5402"/>
   <path fill="#7d7d7d" stroke-width="1px" d="m1181.50661,242.10889l0,-134.35096l60.55251,0q9.46136,0 17.4089,3.97377q8.13673,3.97367 14.00279,10.4074q5.86597,6.43373 9.08288,14.57046q3.40601,8.13673 3.40601,16.46275q0,6.24445 -1.51382,12.11051q-1.51381,5.67677 -4.35215,10.78588q-2.83843,5.1092 -7.0014,9.27216q-3.97377,3.97377 -9.08287,6.81211l29.5193,49.95592l-35.00689,0l-25.73482,-43.333l-20.24733,0l0,43.333l-31.03311,0zm31.03311,-70.39234l28.38407,0q5.48758,0 9.46135,-5.10911q3.97377,-5.29839 3.97377,-13.43513q0,-8.32602 -4.54144,-13.24584q-4.54144,-4.91991 -9.83983,-4.91991l-27.43792,0l0,36.70999z" id="path5404"/>
   <path fill="#7d7d7d" stroke-width="1px" d="m1402.69783,214.86017l0,27.24872l-94.42417,0l0,-134.35096l92.72107,0l0,27.24863l-61.68786,0l0,26.11329l52.98346,0l0,25.16716l-52.98346,0l0,28.57316l63.39096,0z" id="path5406"/>
  </g>
 </g>
</svg>