<svg width="1945.0000000000002" height="1060" xmlns="http://www.w3.org/2000/svg">

 <metadata id="metadata4448">image/svg+xml</metadata>
 <g>
  <title>background</title>
  <rect fill="#ffffff" id="canvas_background" height="1062" width="1947" y="-1" x="-1"/>
 </g>
 <g>
  <title>Layer 1</title>
  <g id="layer1">
   <path fill="#ffffff" fill-rule="evenodd" stroke-linecap="round" stroke-linejoin="round" stroke-miterlimit="4" stroke-dashoffset="0" id="rect5237" d="m182.16607,0.24897l1582.72369,0c99.7478,0 180.0493,80.30213 180.0493,180.04943l0,632.48116c0,99.74739 -80.3015,180.04942 -180.0493,180.04942l-1582.72369,0c-99.7474,0 -180.04943,-80.30203 -180.04943,-180.04942l0,-632.48116c0,-99.7473 80.30203,-180.04943 180.04943,-180.04943z"/>
   <path fill="#038141" fill-rule="evenodd" stroke-linecap="round" stroke-linejoin="round" stroke-miterlimit="4" stroke-dashoffset="0" id="rect5239" d="m292.96571,358.03956l363.02998,0l0,586.31477l-363.02998,0l0,-586.31477z"/>
   <path fill="#e63e11" fill-rule="evenodd" stroke-linecap="round" stroke-linejoin="round" stroke-miterlimit="4" stroke-dashoffset="0" id="rect5241" d="m1350.17889,358.03956l363.02977,0l0,586.31477l-363.02977,0l0,-586.31477z"/>
   <path fill="#038141" fill-rule="evenodd" stroke-linecap="round" stroke-linejoin="round" stroke-miterlimit="4" stroke-dashoffset="0" id="rect5243" d="m219.0995,358.03956l90.64758,0c75.44988,0 136.1912,60.74123 136.1912,136.1912l0,313.93237c0,75.44987 -60.74132,136.1912 -136.1912,136.1912l-90.64758,0c-75.44996,0 -136.1912,-60.74133 -136.1912,-136.1912l0,-313.93237c0,-75.44997 60.74124,-136.1912 136.1912,-136.1912z"/>
   <path fill="#ee8100" fill-rule="evenodd" stroke-linecap="round" stroke-linejoin="round" stroke-miterlimit="4" stroke-dashoffset="0" id="rect5245" d="m1172.43763,358.03956l363.0296,0l0,586.31477l-363.0296,0l0,-586.31477z"/>
   <path fill="#ffffff" fill-opacity="0.44606" stroke-width="1px" d="m1261.04189,780.05324l0,-265.80231l99.2078,0q32.94453,0 57.65289,10.4824q24.70835,10.4823 41.18024,28.45201q16.84732,17.96981 25.08302,42.30377q8.61066,23.95968 8.61066,51.28864q0,30.32384 -9.35962,55.03229q-9.35867,24.33397 -26.954,41.92929q-17.22122,17.22104 -41.92958,26.95467q-24.33406,9.35924 -54.28361,9.35924l-99.2078,0zm169.21491,-133.27549q0,-17.59543 -4.86681,-31.82138q-4.49243,-14.60044 -13.47729,-25.08284q-8.98485,-10.4823 -22.08785,-16.09779q-13.1029,-5.61558 -29.57516,-5.61558l-37.81126,0l0,157.98385l37.81126,0q16.84665,0 29.94955,-5.98988q13.10299,-5.98996 21.71346,-16.47226q8.98486,-10.85669 13.47729,-25.08274q4.86681,-14.60044 4.86681,-31.82138z" id="path5531"/>
   <path fill="#fecb02" fill-rule="evenodd" stroke-linecap="round" stroke-linejoin="round" stroke-miterlimit="4" stroke-dashoffset="0" id="rect5251" d="m789.73997,358.03956l383.3209,0l0,586.31477l-383.3209,0l0,-586.31477z"/>
   <path fill="#85bb2f" fill-rule="evenodd" stroke-linecap="round" stroke-linejoin="round" stroke-miterlimit="4" stroke-dashoffset="0" id="rect5253" d="m808.34578,358.03956l-363.03008,0l0,586.31477l363.03008,0l0,-586.31477z"/>
   <path fill="#ffffff" fill-opacity="0.44606" stroke-width="1px" d="m860.29173,654.13906q0,-23.95968 8.98485,-47.54488q8.98495,-23.95967 26.2059,-42.67816q17.22103,-18.71848 41.92939,-30.32384q24.70835,-11.60545 56.15535,-11.60545q37.43696,0 64.76591,16.09788q27.70334,16.09788 41.18063,41.9293l-47.1705,32.94453q-4.49243,-10.4823 -11.60545,-17.22104q-6.73865,-7.11293 -14.97483,-11.23107q-8.23608,-4.49242 -16.84655,-5.98987q-8.61057,-1.87183 -16.84666,-1.87183q-17.59532,0 -30.69832,7.11303q-13.1029,7.11303 -21.71337,18.3441q-8.61047,11.23107 -12.72861,25.45712q-4.11804,14.22596 -4.11804,28.8264q0,15.7235 4.86681,30.32393q4.86681,14.60035 13.85167,25.83151q9.35924,11.23107 22.08776,17.96971q13.10299,6.36426 29.20087,6.36426q8.23609,0 16.84656,-1.87183q8.98486,-2.24621 16.84665,-6.36435q8.23609,-4.49243 14.97473,-11.23107q6.73864,-7.11303 10.85678,-17.22094l50.16548,29.57516q-5.98997,14.60044 -17.96971,26.2059q-11.60546,11.60545 -26.95467,19.46715q-15.34911,7.8618 -32.57005,11.97984q-17.22104,4.11805 -33.69331,4.11805q-28.82639,0 -53.16046,-11.60546q-23.95958,-11.97984 -41.55491,-31.44699q-17.22104,-19.46725 -26.95466,-44.17561q-9.35924,-24.70835 -9.35924,-50.16548z" id="path5526"/>
   <path fill="#ffffff" fill-opacity="0.44606" stroke-width="1px" d="m698.6415,711.91795q0,17.22104 -7.11303,29.94956q-7.11303,12.7286 -19.46725,21.33908q-12.35413,8.23608 -28.8264,12.72851q-16.47227,4.11814 -34.81636,4.11814l-129.53174,0l0,-265.80231l147.87583,0q13.85167,0 25.08274,5.98997q11.23107,5.98987 19.09287,15.7235q7.8617,9.35924 11.97984,21.71346q4.49243,11.97975 4.49243,24.70836q0,19.09277 -9.73363,35.93942q-9.35924,16.84665 -28.45211,25.45712q22.83653,6.73865 35.93952,23.95968q13.47729,17.22095 13.47729,44.17551zm-62.5197,-12.35413q0,-12.35422 -7.11303,-20.96469q-7.11303,-8.61047 -17.96971,-8.61047l-70.75579,0l0,58.02718l68.13519,0q11.97984,0 19.84154,-7.86171q7.8618,-7.86179 7.8618,-20.59031zm-95.83853,-132.9011l0,55.03229l60.27339,0q10.10801,0 17.96981,-6.73864q7.8617,-6.73874 7.8617,-20.9647q0,-13.10299 -7.11303,-20.21593q-6.73864,-7.11302 -16.47226,-7.11302l-62.51961,0z" id="path5523"/>
   <path fill="#0039ff" fill-opacity="0.62974" fill-rule="evenodd" stroke="#ffffff" stroke-width="61.03179" stroke-linecap="round" stroke-linejoin="round" stroke-miterlimit="4" stroke-dashoffset="0" id="rect5263" d="m961.73727,281.8648l39.3264,0c108.69904,0 196.20765,87.50871 196.20765,196.20774l0,343.94054c0,108.69904 -87.50861,196.20769 -196.20765,196.20769l-39.3264,0c-108.69913,0 -196.20774,-87.50865 -196.20774,-196.20769l0,-343.94054c0,-108.69903 87.50861,-196.20774 196.20774,-196.20774z"/>
   <path fill="#ffffff" fill-opacity="0.44606" stroke-width="1px" d="m236.7199,514.25093l55.40668,0l96.96168,265.80231l-62.89409,0l-20.59031,-59.52472l-82.73563,0l-20.21592,59.52472l-62.89399,0l96.96158,-265.80231zm58.77605,163.97381l-31.07271,-93.9667l-31.82138,93.9667l62.89409,0z" id="path5519"/>
   <path fill="#e63e11" fill-rule="evenodd" stroke-linecap="round" stroke-linejoin="round" stroke-miterlimit="4" stroke-dashoffset="0" id="rect5269" d="m1671.03656,358.03956l90.6471,0c75.4498,0 136.1917,60.74123 136.1917,136.1912l0,313.93237c0,75.44987 -60.7419,136.1912 -136.1917,136.1912l-90.6471,0c-75.44982,0 -136.19172,-60.74133 -136.19172,-136.1912l0,-313.93237c0,-75.44997 60.7419,-136.1912 136.19172,-136.1912z"/>
   <path fill="#ffffff" fill-opacity="0.44606" stroke-width="1px" d="m1809.76546,726.14401l0,53.90923l-186.8108,0l0,-265.80231l183.441,0l0,53.90923l-122.0444,0l0,51.66292l104.824,0l0,49.79119l-104.824,0l0,56.52974l125.4142,0z" id="path5515"/>
   <path fill="#fecb02" fill-rule="evenodd" stroke-width="15.94488" stroke-linecap="round" stroke-linejoin="round" stroke-miterlimit="4" stroke-dashoffset="0" id="rect5275" d="m961.73727,281.8648l39.3264,0c108.69904,0 196.20765,87.50871 196.20765,196.20774l0,343.94054c0,108.69904 -87.50861,196.20769 -196.20765,196.20769l-39.3264,0c-108.69913,0 -196.20774,-87.50865 -196.20774,-196.20769l0,-343.94054c0,-108.69903 87.50861,-196.20774 196.20774,-196.20774z"/>
   <path fill="#ffffff" stroke-width="1px" d="m834.93519,654.25992q0,-31.58869 10.86611,-62.68395q10.86601,-31.5888 31.69262,-56.26746q20.82661,-24.67876 50.70821,-39.97953q29.8816,-15.30086 67.91279,-15.30086q45.27516,0 78.32637,21.22374q33.50345,21.22374 49.80223,55.28029l-57.04649,43.43464q-5.43324,-13.82007 -14.03562,-22.70443q-8.1493,-9.3779 -18.1099,-14.80724q-9.9605,-5.92297 -20.37371,-7.8972q-10.4134,-2.46795 -20.3739,-2.46795q-21.27932,0 -37.12567,9.3779q-15.84627,9.37789 -26.25957,24.18522q-10.41331,14.80724 -15.39356,33.56302q-4.98025,18.75588 -4.98025,38.0052q0,20.73021 5.88576,39.97963q5.88576,19.24951 16.75177,34.05665q11.31882,14.80723 26.71237,23.69159q15.84636,8.39073 35.31466,8.39073q9.9606,0 20.37381,-2.46785q10.8661,-2.96139 20.3739,-8.39073q9.9605,-5.92297 18.11037,-14.80724q8.14929,-9.37799 13.12954,-22.70443l60.66862,38.99236q-7.24435,19.24942 -21.73192,34.55028q-14.03562,15.30077 -32.59841,25.66582q-18.56279,10.36515 -39.38921,15.7944q-20.82661,5.42934 -40.74771,5.42934q-34.86185,0 -64.29075,-15.30077q-28.97609,-15.79449 -50.25541,-41.46031q-20.82661,-25.66583 -32.59822,-58.24188q-11.31882,-32.57586 -11.31883,-66.13898z" id="path5511"/>
   <path fill="#7d7d7d" stroke-width="1px" d="m158.09171,163.39655l0,76.82598l-31.03321,0l0,-134.35097l24.22101,0l62.63409,78.90756l0,-78.90756l31.03312,0l0,134.35097l-24.97787,0l-61.87714,-76.82598z" id="path5488"/>
   <path fill="#7d7d7d" stroke-width="1px" d="m328.54056,213.73085q7.94754,0 13.43512,-3.21691q5.48758,-3.4061 8.89369,-8.89369q3.4061,-5.48749 4.73063,-12.48888q1.51381,-7.19069 1.51381,-14.57046l0,-68.68935l31.03321,0l0,68.68935q0,14.00279 -3.59529,26.11329q-3.4061,12.11051 -10.78598,21.19338q-7.19059,9.08288 -18.54423,14.38118q-11.16436,5.10911 -26.68096,5.10911q-16.08428,0 -27.43783,-5.48749q-11.35364,-5.48759 -18.54423,-14.57046q-7.0014,-9.27217 -10.4075,-21.38267q-3.21682,-12.1105 -3.21682,-25.35634l0,-68.68935l31.03322,0l0,68.68935q0,7.75825 1.51381,14.75965q1.51381,7.0014 4.91982,12.48898q3.4061,5.48758 8.7045,8.7044q5.48758,3.21691 13.43503,3.21691z" id="path5490"/>
   <path fill="#7d7d7d" stroke-width="1px" d="m514.37896,133.12019l-40.87295,0l0,107.10234l-31.03321,0l0,-107.10234l-41.06214,0l0,-27.24863l112.9683,0l0,27.24863z" id="path5492"/>
   <path fill="#7d7d7d" stroke-width="1px" d="m529.53488,240.22253l0,-134.35097l60.55252,0q9.46135,0 17.4088,3.97377q8.13683,3.97377 14.00279,10.4075q5.86606,6.43373 9.08288,14.57046q3.4061,8.13674 3.4061,16.46266q0,6.24454 -1.51381,12.1106q-1.51381,5.67677 -4.35225,10.78588q-2.83834,5.10911 -7.00139,9.27207q-3.97368,3.97377 -9.08288,6.8122l29.5194,49.95583l-35.00689,0l-25.73491,-43.33291l-20.24724,0l0,43.33291l-31.03312,0zm31.03312,-70.39235l28.38406,0q5.48749,0 9.46126,-5.10911q3.97377,-5.29829 3.97377,-13.43512q0,-8.32592 -4.54144,-13.24584q-4.54143,-4.91992 -9.83973,-4.91992l-27.43792,0l0,36.70999z" id="path5494"/>
   <path fill="#7d7d7d" stroke-width="1px" d="m656.30194,240.22253l0,-134.35097l31.03321,0l0,134.35097l-31.03321,0z" id="path5496"/>
   <path fill="#7d7d7d" stroke-width="1px" d="m710.56862,201.80954l0,-27.24863l58.28175,0l0,27.24863l-58.28175,0z" id="path5498"/>
   <path fill="#7d7d7d" stroke-width="1px" d="m872.54964,145.2307q-0.56814,-0.75658 -3.97377,-2.83834q-3.4061,-2.08148 -8.51521,-4.35225q-5.1091,-2.27067 -11.16436,-3.97377q-6.05525,-1.703 -12.1105,-1.703q-16.65194,0 -16.65194,11.16435q0,3.40611 1.703,5.67678q1.89229,2.27077 5.2984,4.16306q3.59529,1.703 8.89359,3.21681q5.29839,1.51382 12.29979,3.40611q9.65054,2.64914 17.4088,5.86596q7.75835,3.02763 13.05665,7.75835q5.48758,4.54144 8.32601,11.16436q3.02763,6.62292 3.02763,15.89508q0,11.35355 -4.35225,19.30109q-4.16296,7.75826 -11.16436,12.67817q-7.00139,4.73073 -16.08427,7.0014q-9.08288,2.08148 -18.73342,2.08148q-7.37988,0 -15.13813,-1.13533q-7.75835,-1.13534 -15.13813,-3.21682q-7.37988,-2.27077 -14.38127,-5.29839q-6.81211,-3.02763 -12.67817,-7.0014l13.62431,-27.05944q0.75658,0.94595 4.91992,3.59529q4.16296,2.64925 10.21821,5.2984q6.24444,2.64914 13.81351,4.73063q7.56906,2.08157 15.32741,2.08157q16.46276,0 16.46276,-10.02902q0,-3.78458 -2.45996,-6.24454q-2.45996,-2.45996 -6.81221,-4.35215q-4.35215,-2.08158 -10.4075,-3.78458q-5.86596,-1.70301 -12.86736,-3.78449q-9.27207,-2.83843 -16.08427,-6.05525q-6.81221,-3.4061 -11.35365,-7.75835q-4.35215,-4.35225 -6.62292,-10.02902q-2.08148,-5.67678 -2.08148,-13.24584q0,-10.59669 3.97377,-18.73342q3.97377,-8.13683 10.78588,-13.62432q6.81221,-5.67687 15.7059,-8.51521q9.08287,-2.83843 19.1119,-2.83843q7.00139,0 13.8135,1.32462q6.81221,1.32453 13.05665,3.40601q6.24444,2.08157 11.54284,4.73072q5.48758,2.64915 10.02902,5.2983l-13.62432,25.73482z" id="path5500"/>
   <path fill="#7d7d7d" stroke-width="1px" d="m900.59948,171.91166q0,-12.1105 4.54144,-24.03172q4.54144,-12.1105 13.24593,-21.57186q8.70441,-9.46135 21.19339,-15.32741q12.48888,-5.86597 28.38396,-5.86597q18.92271,0 32.73622,8.13674q14.00279,8.13673 20.8149,21.19338l-23.84253,16.65194q-2.27067,-5.2983 -5.86606,-8.7044q-3.406,-3.5953 -7.56906,-5.67678q-4.16296,-2.27076 -8.51521,-3.02762q-4.35215,-0.94596 -8.51512,-0.94596q-8.89368,0 -15.5166,3.5953q-6.62292,3.59529 -10.97517,9.27207q-4.35225,5.67677 -6.43373,12.86745q-2.08148,7.19059 -2.08148,14.57046q0,7.94755 2.45996,15.32732q2.45996,7.37988 7.0014,13.05665q4.73063,5.67678 11.16435,9.08288q6.62292,3.21691 14.75966,3.21691q4.16305,0 8.51521,-0.94595q4.54144,-1.13543 8.51521,-3.21692q4.16296,-2.27067 7.56906,-5.67677q3.4061,-3.59529 5.48758,-8.7044l25.35635,14.94884q-3.02763,7.37988 -9.08288,13.24594q-5.86597,5.86596 -13.62432,9.83973q-7.75825,3.97377 -16.46265,6.05526q-8.7045,2.08148 -17.03042,2.08148q-14.57046,0 -26.87025,-5.86597q-12.11051,-6.05525 -21.0041,-15.89508q-8.70449,-9.83974 -13.62431,-22.32872q-4.73073,-12.48898 -4.73073,-25.35644l0,-0.00038z" id="path5502"/>
   <path fill="#7d7d7d" stroke-width="1px" d="m1095.82234,241.35787q-14.94893,0 -27.24872,-5.86597q-12.2997,-5.86606 -21.0041,-15.32742q-8.70449,-9.65054 -13.62431,-21.95024q-4.73073,-12.29978 -4.73073,-25.35643q0,-13.24584 4.91992,-25.54554q5.1091,-12.29979 14.00279,-21.57185q9.08288,-9.46136 21.38257,-14.94894q12.29979,-5.67678 26.87025,-5.67678q14.94884,0 27.24863,5.86597q12.2997,5.86606 21.0041,15.51661q8.70449,9.65054 13.43512,21.95033q4.73073,12.29969 4.73073,24.97787q0,13.24593 -5.1092,25.54562q-4.91982,12.29979 -13.81351,21.76105q-8.89369,9.27217 -21.19338,14.94894q-12.29979,5.67678 -26.87016,5.67678zm-35.00698,-68.12159q0,7.75836 2.27067,15.13813q2.27077,7.19059 6.62302,12.86746q4.54144,5.67678 11.16436,9.08288q6.62292,3.4061 15.13812,3.4061q8.89369,0 15.51661,-3.59539q6.62292,-3.59529 10.97517,-9.27207q4.35215,-5.86606 6.43363,-13.05664q2.27077,-7.37988 2.27077,-14.94894q0,-7.75826 -2.27077,-14.94885q-2.27067,-7.37987 -6.81211,-12.86745q-4.54144,-5.67678 -11.16436,-8.89369q-6.43373,-3.40601 -14.94894,-3.40601q-8.89368,0 -15.5166,3.5953q-6.43373,3.4061 -10.97517,9.08287q-4.35215,5.67678 -6.62292,13.05665q-2.08148,7.19059 -2.08148,14.75965z" id="path5504"/>
   <path fill="#7d7d7d" stroke-width="1px" d="m1180.74081,240.22253l0,-134.35097l60.55251,0q9.46136,0 17.4089,3.97377q8.13673,3.97377 14.00279,10.4075q5.86597,6.43373 9.08288,14.57046q3.40601,8.13674 3.40601,16.46266q0,6.24454 -1.51382,12.1106q-1.51381,5.67677 -4.35215,10.78588q-2.83843,5.10911 -7.0014,9.27207q-3.97377,3.97377 -9.08287,6.8122l29.5193,49.95583l-35.00689,0l-25.73482,-43.33291l-20.24733,0l0,43.33291l-31.03311,0zm31.03311,-70.39235l28.38407,0q5.48758,0 9.46135,-5.10911q3.97377,-5.29829 3.97377,-13.43512q0,-8.32592 -4.54144,-13.24584q-4.54144,-4.91992 -9.83983,-4.91992l-27.43792,0l0,36.70999z" id="path5506"/>
   <path fill="#7d7d7d" stroke-width="1px" d="m1401.93203,212.9739l0,27.24863l-94.42417,0l0,-134.35097l92.72107,0l0,27.24863l-61.68786,0l0,26.1133l52.98346,0l0,25.16715l-52.98346,0l0,28.57326l63.39096,0z" id="path5508"/>
  </g>
 </g>
</svg>