<svg width="1945" height="1060" xmlns="http://www.w3.org/2000/svg">

 <metadata id="metadata4448">image/svg+xml</metadata>
 <g>
  <title>background</title>
  <rect fill="#ffffff" id="canvas_background" height="1062" width="1947" y="-1" x="-1"/>
 </g>
 <g>
  <title>Layer 1</title>
  <g id="layer1">
   <path fill="#ffffff" fill-rule="evenodd" stroke-linecap="round" stroke-linejoin="round" stroke-miterlimit="4" stroke-dashoffset="0" id="rect5285" d="m182.79377,-1.88681l1582.72369,0c99.7478,0 180.0493,80.30204 180.0493,180.04943l0,632.48116c0,99.7474 -80.3015,180.04943 -180.0493,180.04943l-1582.72369,0c-99.7474,0 -180.04943,-80.30203 -180.04943,-180.04943l0,-632.48116c0,-99.74739 80.30203,-180.04943 180.04943,-180.04943z"/>
   <path fill="#038141" fill-rule="evenodd" stroke-linecap="round" stroke-linejoin="round" stroke-miterlimit="4" stroke-dashoffset="0" id="rect5287" d="m293.59341,355.90369l363.02998,0l0,586.31477l-363.02998,0l0,-586.31477z"/>
   <path fill="#e63e11" fill-rule="evenodd" stroke-linecap="round" stroke-linejoin="round" stroke-miterlimit="4" stroke-dashoffset="0" id="rect5289" d="m1350.80659,355.90369l363.02977,0l0,586.31477l-363.02977,0l0,-586.31477z"/>
   <path fill="#038141" fill-rule="evenodd" stroke-linecap="round" stroke-linejoin="round" stroke-miterlimit="4" stroke-dashoffset="0" id="rect5291" d="m219.7272,355.90369l90.64758,0c75.44988,0 136.1912,60.74133 136.1912,136.1913l0,313.93227c0,75.44996 -60.74132,136.1912 -136.1912,136.1912l-90.64758,0c-75.44996,0 -136.1912,-60.74124 -136.1912,-136.1912l0,-313.93227c0,-75.44997 60.74124,-136.1913 136.1912,-136.1913z"/>
   <path fill="#ee8100" fill-rule="evenodd" stroke-linecap="round" stroke-linejoin="round" stroke-miterlimit="4" stroke-dashoffset="0" id="rect5293" d="m1173.06533,355.90369l363.0296,0l0,586.31477l-363.0296,0l0,-586.31477z"/>
   <path fill="#ffffff" fill-opacity="0.44606" stroke-width="1px" d="m1238.71315,787.15061l0,-265.80222l99.2079,0q32.94453,0 57.65289,10.4823q24.70835,10.48231 41.18062,28.45211q16.84627,17.96971 25.08293,42.30368q8.61066,23.95968 8.61066,51.28864q0,30.32393 -9.35962,55.03229q-9.35962,24.33397 -26.95457,41.92939q-17.22094,17.22094 -41.92939,26.95457q-24.33397,9.35924 -54.28352,9.35924l-99.2079,0zm169.21501,-133.27549q0,-17.59543 -4.86681,-31.82139q-4.49243,-14.60043 -13.47729,-25.08273q-8.98485,-10.4824 -22.08785,-16.09789q-13.1029,-5.61558 -29.57516,-5.61558l-37.81126,0l0,157.98385l37.81126,0q16.84665,0 29.94955,-5.98988q13.1029,-5.98996 21.71346,-16.47226q8.98486,-10.85669 13.47729,-25.08274q4.86681,-14.60044 4.86681,-31.82138z" id="path5480"/>
   <path fill="#fecb02" fill-rule="evenodd" stroke-linecap="round" stroke-linejoin="round" stroke-miterlimit="4" stroke-dashoffset="0" id="rect5299" d="m790.36767,355.90369l383.3209,0l0,586.31477l-383.3209,0l0,-586.31477z"/>
   <path fill="#85bb2f" fill-rule="evenodd" stroke-linecap="round" stroke-linejoin="round" stroke-miterlimit="4" stroke-dashoffset="0" id="rect5301" d="m808.97348,355.90369l-363.03008,0l0,586.31477l363.03008,0l0,-586.31477z"/>
   <path fill="#ffffff" fill-opacity="0.44606" stroke-width="1px" d="m832.51243,640.52393q0,-23.95968 8.98485,-47.54488q8.98486,-23.95968 26.2059,-42.67816q17.22094,-18.71848 41.92929,-30.32394q24.70836,-11.60545 56.15545,-11.60545q37.43687,0 64.76582,16.09788q27.70334,16.09788 41.18072,41.92939l-47.17059,32.94454q-4.49243,-10.4824 -11.60546,-17.22104q-6.73864,-7.11303 -14.97473,-11.23107q-8.23618,-4.49243 -16.84665,-5.98987q-8.61047,-1.87183 -16.84665,-1.87183q-17.59533,0 -30.69823,7.11302q-13.10299,7.11294 -21.71346,18.3441q-8.61047,11.23107 -12.72852,25.45703q-4.11804,14.22605 -4.11804,28.82649q0,15.7235 4.86672,30.32394q4.86681,14.60034 13.85167,25.83141q9.35924,11.23107 22.08785,17.96981q13.1029,6.36426 29.20078,6.36426q8.23609,0 16.84665,-1.87183q8.98486,-2.24622 16.84656,-6.36436q8.23618,-4.49242 14.97482,-11.23107q6.73864,-7.11302 10.85669,-17.22094l50.16548,29.57517q-5.98988,14.60044 -17.96972,26.2058q-11.60545,11.60545 -26.95456,19.46725q-15.34912,7.8618 -32.57015,11.97984q-17.22095,4.11804 -33.69321,4.11804q-28.8265,0 -53.16047,-11.60545q-23.95968,-11.97984 -41.555,-31.447q-17.22095,-19.46725 -26.95457,-44.1756q-9.35924,-24.70836 -9.35924,-50.16548z" id="path5475"/>
   <path fill="#ffffff" fill-opacity="0.44606" stroke-width="1px" d="m737.33588,709.78218q0,17.22094 -7.11303,29.94955q-7.11303,12.72851 -19.46725,21.33908q-12.35413,8.23609 -28.8264,12.72851q-16.47227,4.11805 -34.81637,4.11805l-129.53183,0l0,-265.80222l147.87593,0q13.85167,0 25.08274,5.98997q11.23107,5.98987 19.09287,15.7235q7.8617,9.35924 11.97984,21.71337q4.49243,11.97984 4.49243,24.70835q0,19.09287 -9.73363,35.93952q-9.35924,16.84656 -28.45211,25.45713q22.83653,6.73864 35.93952,23.95958q13.47729,17.22104 13.47729,44.17561zm-62.51971,-12.35423q0,-12.35413 -7.11302,-20.96469q-7.11303,-8.61047 -17.96972,-8.61047l-70.75579,0l0,58.02727l68.13519,0q11.97984,0 19.84154,-7.8618q7.8618,-7.8617 7.8618,-20.59031zm-95.83853,-132.9011l0,55.03229l60.2734,0q10.10801,0 17.9698,-6.73865q7.86171,-6.73864 7.86171,-20.96469q0,-13.1029 -7.11303,-20.21593q-6.73864,-7.11302 -16.47227,-7.11302l-62.51961,0z" id="path5472"/>
   <path fill="#ffffff" fill-opacity="0.44606" stroke-width="1px" d="m237.3476,512.11515l55.40668,0l96.96168,265.80222l-62.89409,0l-20.59031,-59.52472l-82.73563,0l-20.21592,59.52472l-62.89399,0l96.96158,-265.80222zm58.77605,163.97382l-31.07271,-93.9667l-31.82138,93.9667l62.89409,0z" id="path5469"/>
   <path fill="#e63e11" fill-rule="evenodd" stroke-linecap="round" stroke-linejoin="round" stroke-miterlimit="4" stroke-dashoffset="0" id="rect5315" d="m1671.66426,355.90369l90.6471,0c75.4498,0 136.1917,60.74133 136.1917,136.1913l0,313.93227c0,75.44996 -60.7419,136.1912 -136.1917,136.1912l-90.6471,0c-75.44982,0 -136.19172,-60.74124 -136.19172,-136.1912l0,-313.93227c0,-75.44997 60.7419,-136.1913 136.19172,-136.1913z"/>
   <path fill="#0039ff" fill-opacity="0.62974" fill-rule="evenodd" stroke="#ffffff" stroke-width="61.03179" stroke-linecap="round" stroke-linejoin="round" stroke-miterlimit="4" stroke-dashoffset="0" id="rect5317" d="m1334.91693,279.72903l39.3264,0c108.69922,0 196.20764,87.5086 196.20764,196.20764l0,343.94054c0,108.69904 -87.50842,196.20779 -196.20764,196.20779l-39.3264,0c-108.69914,0 -196.20774,-87.50875 -196.20774,-196.20779l0,-343.94054c0,-108.69904 87.5086,-196.20764 196.20774,-196.20764z"/>
   <path fill="#ffffff" fill-opacity="0.44606" stroke-width="1px" d="m1841.23746,724.00823l0,53.90914l-186.8108,0l0,-265.80222l183.441,0l0,53.90924l-122.0443,0l0,51.66292l104.823,0l0,49.79109l-104.823,0l0,56.52983l125.4141,0z" id="path5464"/>
   <path fill="#ee8100" fill-rule="evenodd" stroke-width="15.94488" stroke-linecap="round" stroke-linejoin="round" stroke-miterlimit="4" stroke-dashoffset="0" id="rect5323" d="m1334.91693,279.72903l39.3264,0c108.69922,0 196.20764,87.5086 196.20764,196.20764l0,343.94054c0,108.69904 -87.50842,196.20779 -196.20764,196.20779l-39.3264,0c-108.69914,0 -196.20774,-87.50875 -196.20774,-196.20779l0,-343.94054c0,-108.69904 87.5086,-196.20764 196.20774,-196.20764z"/>
   <path fill="#ffffff" stroke-width="1px" d="m1214.45356,830.30451l0,-350.43803l119.97912,0q39.84173,0 69.72399,13.82007q29.88131,13.82007 49.80251,37.51176q20.37324,23.6916 30.33431,55.77393q10.41311,31.58879 10.41311,67.61967q0,39.97962 -11.31815,72.55548q-11.31909,32.08233 -32.59831,55.28039q-20.82642,22.70443 -50.70859,35.53735q-29.42832,12.33938 -65.64887,12.33938l-119.97912,0zm204.64377,-175.7126q0,-23.19797 -5.88623,-41.95375q-5.43229,-19.24952 -16.29869,-33.06959q-10.86648,-13.82007 -26.71218,-21.22364q-15.84664,-7.40367 -35.76755,-7.40367l-45.72796,0l0,208.28846l45.72796,0q20.3739,0 36.22055,-7.8972q15.84569,-7.8971 26.25918,-21.71718q10.8664,-14.31379 16.29869,-33.06958q5.88623,-19.24942 5.88623,-41.95385z" id="path5460"/>
   <path fill="#7d7d7d" stroke-width="1px" d="m158.71941,161.26068l0,76.82607l-31.03321,0l0,-134.35096l24.22101,0l62.63409,78.90755l0,-78.90755l31.03312,0l0,134.35096l-24.97787,0l-61.87714,-76.82607z" id="path5437"/>
   <path fill="#7d7d7d" stroke-width="1px" d="m329.16826,211.59498q7.94754,0 13.43512,-3.21682q5.48758,-3.4061 8.89369,-8.89368q3.4061,-5.48759 4.73063,-12.48898q1.51381,-7.19059 1.51381,-14.57047l0,-68.68924l31.03321,0l0,68.68924q0,14.0028 -3.59529,26.1133q-3.4061,12.1105 -10.78598,21.19338q-7.19059,9.08288 -18.54423,14.38127q-11.16436,5.10911 -26.68096,5.10911q-16.08428,0 -27.43783,-5.48759q-11.35364,-5.48758 -18.54423,-14.57046q-7.0014,-9.27206 -10.4075,-21.38257q-3.21682,-12.1105 -3.21682,-25.35644l0,-68.68924l31.03322,0l0,68.68924q0,7.75836 1.51381,14.75975q1.51381,7.0014 4.91982,12.48898q3.4061,5.48749 8.7045,8.7044q5.48758,3.21682 13.43503,3.21682z" id="path5439"/>
   <path fill="#7d7d7d" stroke-width="1px" d="m515.00666,130.98442l-40.87295,0l0,107.10233l-31.03321,0l0,-107.10233l-41.06214,0l0,-27.24863l112.9683,0l0,27.24863z" id="path5441"/>
   <path fill="#7d7d7d" stroke-width="1px" d="m530.16258,238.08675l0,-134.35096l60.55252,0q9.46135,0 17.4088,3.97377q8.13683,3.97377 14.00279,10.4075q5.86606,6.43363 9.08288,14.57036q3.4061,8.13683 3.4061,16.46275q0,6.24454 -1.51381,12.11051q-1.51381,5.67677 -4.35225,10.78597q-2.83834,5.10911 -7.00139,9.27207q-3.97368,3.97377 -9.08288,6.81221l29.5194,49.95582l-35.00689,0l-25.73491,-43.3329l-20.24724,0l0,43.3329l-31.03312,0zm31.03312,-70.39235l28.38406,0q5.48749,0 9.46126,-5.1091q3.97377,-5.29839 3.97377,-13.43513q0,-8.32592 -4.54144,-13.24584q-4.54143,-4.91991 -9.83973,-4.91991l-27.43792,0l0,36.70998z" id="path5443"/>
   <path fill="#7d7d7d" stroke-width="1px" d="m656.92964,238.08675l0,-134.35096l31.03321,0l0,134.35096l-31.03321,0z" id="path5445"/>
   <path fill="#7d7d7d" stroke-width="1px" d="m711.19632,199.67376l0,-27.24873l58.28175,0l0,27.24873l-58.28175,0z" id="path5447"/>
   <path fill="#7d7d7d" stroke-width="1px" d="m873.17734,143.09492q-0.56814,-0.75657 -3.97377,-2.83843q-3.4061,-2.08148 -8.51521,-4.35216q-5.1091,-2.27076 -11.16436,-3.97377q-6.05525,-1.703 -12.1105,-1.703q-16.65194,0 -16.65194,11.16436q0,3.4061 1.703,5.67677q1.89229,2.27077 5.2984,4.16296q3.59529,1.7031 8.89359,3.21692q5.29839,1.51381 12.29979,3.406q9.65054,2.64925 17.4088,5.86606q7.75835,3.02763 13.05665,7.75835q5.48758,4.54144 8.32601,11.16436q3.02763,6.62292 3.02763,15.89499q0,11.35365 -4.35225,19.30119q-4.16296,7.75825 -11.16436,12.67817q-7.00139,4.73063 -16.08427,7.00139q-9.08288,2.08149 -18.73342,2.08149q-7.37988,0 -15.13813,-1.13534q-7.75835,-1.13543 -15.13813,-3.21691q-7.37988,-2.27067 -14.38127,-5.2983q-6.81211,-3.02763 -12.67817,-7.0014l13.62431,-27.05944q0.75658,0.94596 4.91992,3.5953q4.16296,2.64914 10.21821,5.29839q6.24444,2.64915 13.81351,4.73063q7.56906,2.08148 15.32741,2.08148q16.46276,0 16.46276,-10.02902q0,-3.78449 -2.45996,-6.24445q-2.45996,-2.45995 -6.81221,-4.35224q-4.35215,-2.08148 -10.4075,-3.78449q-5.86596,-1.7031 -12.86736,-3.78458q-9.27207,-2.83834 -16.08427,-6.05525q-6.81221,-3.4061 -11.35365,-7.75826q-4.35215,-4.35224 -6.62292,-10.02902q-2.08148,-5.67677 -2.08148,-13.24584q0,-10.59678 3.97377,-18.73351q3.97377,-8.13674 10.78588,-13.62432q6.81221,-5.67678 15.7059,-8.51521q9.08287,-2.83834 19.1119,-2.83834q7.00139,0 13.8135,1.32453q6.81221,1.32462 13.05665,3.4061q6.24444,2.08148 11.54284,4.73063q5.48758,2.64924 10.02902,5.29839l-13.62432,25.73482z" id="path5449"/>
   <path fill="#7d7d7d" stroke-width="1px" d="m901.22718,169.77589q0,-12.11051 4.54144,-24.03182q4.54144,-12.1105 13.24593,-21.57176q8.70441,-9.46136 21.19339,-15.32742q12.48888,-5.86606 28.38396,-5.86606q18.92271,0 32.73622,8.13683q14.00279,8.13673 20.8149,21.19338l-23.84253,16.65194q-2.27067,-5.29839 -5.86606,-8.70449q-3.406,-3.5953 -7.56906,-5.67678q-4.16296,-2.27067 -8.51521,-3.02762q-4.35215,-0.94596 -8.51512,-0.94596q-8.89368,0 -15.5166,3.5953q-6.62292,3.59538 -10.97517,9.27216q-4.35225,5.67677 -6.43373,12.86736q-2.08148,7.19068 -2.08148,14.57046q0,7.94754 2.45996,15.32742q2.45996,7.37978 7.0014,13.05665q4.73063,5.67677 11.16435,9.08287q6.62292,3.21682 14.75966,3.21682q4.16305,0 8.51521,-0.94596q4.54144,-1.13533 8.51521,-3.21681q4.16296,-2.27077 7.56906,-5.67678q3.4061,-3.59539 5.48758,-8.70449l25.35635,14.94894q-3.02763,7.37987 -9.08288,13.24584q-5.86597,5.86606 -13.62432,9.83983q-7.75825,3.97377 -16.46265,6.05525q-8.7045,2.08148 -17.03042,2.08148q-14.57046,0 -26.87025,-5.86606q-12.11051,-6.05525 -21.0041,-15.89499q-8.70449,-9.83983 -13.62431,-22.32881q-4.73073,-12.48889 -4.73073,-25.35634l0,-0.00038z" id="path5451"/>
   <path fill="#7d7d7d" stroke-width="1px" d="m1096.45004,239.22209q-14.94893,0 -27.24872,-5.86606q-12.2997,-5.86597 -21.0041,-15.32732q-8.70449,-9.65055 -13.62431,-21.95034q-4.73073,-12.29969 -4.73073,-25.35634q0,-13.24584 4.91992,-25.54563q5.1091,-12.29969 14.00279,-21.57186q9.08288,-9.46126 21.38257,-14.94884q12.29979,-5.67687 26.87025,-5.67687q14.94884,0 27.24863,5.86606q12.2997,5.86606 21.0041,15.51661q8.70449,9.65054 13.43512,21.95033q4.73073,12.2997 4.73073,24.97787q0,13.24584 -5.1092,25.54563q-4.91982,12.29969 -13.81351,21.76105q-8.89369,9.27216 -21.19338,14.94893q-12.29979,5.67678 -26.87016,5.67678zm-35.00698,-68.12158q0,7.75825 2.27067,15.13813q2.27077,7.19058 6.62302,12.86736q4.54144,5.67687 11.16436,9.08288q6.62292,3.4061 15.13812,3.4061q8.89369,0 15.51661,-3.59529q6.62292,-3.5953 10.97517,-9.27207q4.35215,-5.86606 6.43363,-13.05665q2.27077,-7.37987 2.27077,-14.94894q0,-7.75825 -2.27077,-14.94894q-2.27067,-7.37978 -6.81211,-12.86736q-4.54144,-5.67687 -11.16436,-8.89369q-6.43373,-3.4061 -14.94894,-3.4061q-8.89368,0 -15.5166,3.59529q-6.43373,3.40611 -10.97517,9.08298q-4.35215,5.67677 -6.62292,13.05655q-2.08148,7.19068 -2.08148,14.75975z" id="path5453"/>
   <path fill="#7d7d7d" stroke-width="1px" d="m1181.36851,238.08675l0,-134.35096l60.55251,0q9.46136,0 17.4089,3.97377q8.13673,3.97377 14.00279,10.4075q5.86597,6.43363 9.08288,14.57036q3.40601,8.13683 3.40601,16.46275q0,6.24454 -1.51382,12.11051q-1.51381,5.67677 -4.35215,10.78597q-2.83843,5.10911 -7.0014,9.27207q-3.97377,3.97377 -9.08287,6.81221l29.5193,49.95582l-35.00689,0l-25.73482,-43.3329l-20.24733,0l0,43.3329l-31.03311,0zm31.03311,-70.39235l28.38407,0q5.48758,0 9.46135,-5.1091q3.97377,-5.29839 3.97377,-13.43513q0,-8.32592 -4.54144,-13.24584q-4.54144,-4.91991 -9.83983,-4.91991l-27.43792,0l0,36.70998z" id="path5455"/>
   <path fill="#7d7d7d" stroke-width="1px" d="m1402.55973,210.83812l0,27.24863l-94.42417,0l0,-134.35096l92.72107,0l0,27.24863l-61.68786,0l0,26.11329l52.98346,0l0,25.16716l-52.98346,0l0,28.57325l63.39096,0z" id="path5457"/>
  </g>
 </g>
</svg>