<svg width="1945" height="1060" xmlns="http://www.w3.org/2000/svg">

 <metadata id="metadata4448">image/svg+xml</metadata>
 <g>
  <title>background</title>
  <rect fill="#ffffff" id="canvas_background" height="1062" width="1947" y="0" x="0"/>
 </g>
 <g>
  <title>Layer 1</title>
  <g id="layer1">
   <path fill="#ffffff" fill-rule="evenodd" stroke-linecap="round" stroke-linejoin="round" stroke-miterlimit="4" stroke-dashoffset="0" id="rect5161" d="m180.04511,2.30693l1582.72369,0c99.7478,0 180.0493,80.30203 180.0493,180.04943l0,632.48116c0,99.7473 -80.3015,180.04933 -180.0493,180.04933l-1582.72369,0c-99.7474,0 -180.04943,-80.30203 -180.04943,-180.04933l0,-632.48116c0,-99.7474 80.30203,-180.04943 180.04943,-180.04943z"/>
   <path fill="#038141" fill-rule="evenodd" stroke-linecap="round" stroke-linejoin="round" stroke-miterlimit="4" stroke-dashoffset="0" id="rect5163" d="m290.84475,360.09743l363.02998,0l0,586.31476l-363.02998,0l0,-586.31476z"/>
   <path fill="#e63e11" fill-rule="evenodd" stroke-linecap="round" stroke-linejoin="round" stroke-miterlimit="4" stroke-dashoffset="0" id="rect5165" d="m1348.05793,360.09743l363.02977,0l0,586.31476l-363.02977,0l0,-586.31476z"/>
   <path fill="#038141" fill-rule="evenodd" stroke-linecap="round" stroke-linejoin="round" stroke-miterlimit="4" stroke-dashoffset="0" id="rect5167" d="m216.97854,360.09743l90.64758,0c75.44988,0 136.1912,60.74132 136.1912,136.1912l0,313.93236c0,75.44988 -60.74132,136.1912 -136.1912,136.1912l-90.64758,0c-75.44996,0 -136.1912,-60.74132 -136.1912,-136.1912l0,-313.93236c0,-75.44988 60.74124,-136.1912 136.1912,-136.1912z"/>
   <path fill="#ee8100" fill-rule="evenodd" stroke-linecap="round" stroke-linejoin="round" stroke-miterlimit="4" stroke-dashoffset="0" id="rect5169" d="m1170.31667,360.09743l363.0296,0l0,586.31476l-363.0296,0l0,-586.31476z"/>
   <path fill="#ffffff" fill-opacity="0.44606" stroke-width="1px" d="m1235.96397,782.1112l0,-265.80221l99.2079,0q32.94453,0 57.65289,10.48239q24.70835,10.4823 41.18062,28.45201q16.84627,17.96972 25.08293,42.30378q8.61066,23.95958 8.61066,51.28854q0,30.32393 -9.35962,55.03229q-9.35962,24.33406 -26.95457,41.92939q-17.22094,17.22104 -41.92939,26.95457q-24.33397,9.35924 -54.28352,9.35924l-99.2079,0zm169.21501,-133.27549q0,-17.59533 -4.86681,-31.82138q-4.49243,-14.60035 -13.47729,-25.08274q-8.98485,-10.4823 -22.08785,-16.09789q-13.1029,-5.61548 -29.57516,-5.61548l-37.81126,0l0,157.98384l37.81126,0q16.84665,0 29.94955,-5.98997q13.1029,-5.98987 21.71346,-16.47217q8.98486,-10.85678 13.47729,-25.08274q4.86681,-14.60044 4.86681,-31.82147z" id="path5600"/>
   <path fill="#fecb02" fill-rule="evenodd" stroke-linecap="round" stroke-linejoin="round" stroke-miterlimit="4" stroke-dashoffset="0" id="rect5175" d="m787.61901,360.09743l383.3209,0l0,586.31476l-383.3209,0l0,-586.31476z"/>
   <path fill="#85bb2f" fill-rule="evenodd" stroke-linecap="round" stroke-linejoin="round" stroke-miterlimit="4" stroke-dashoffset="0" id="rect5177" d="m806.22482,360.09743l-363.03008,0l0,586.31476l363.03008,0l0,-586.31476z"/>
   <path fill="#ffffff" fill-opacity="0.44606" stroke-width="1px" d="m892.60532,644.71776q0,-23.95968 8.98486,-47.54488q8.98486,-23.95968 26.20589,-42.67816q17.22095,-18.71848 41.9293,-30.32394q24.70845,-11.60536 56.15544,-11.60536q37.43697,0 64.76592,16.09789q27.70334,16.09788 41.18062,41.92929l-47.17059,32.94454q-4.49242,-10.4824 -11.60545,-17.22104q-6.73864,-7.11303 -14.97473,-11.23107q-8.23609,-4.49243 -16.84665,-5.98987q-8.61047,-1.87183 -16.84656,-1.87183q-17.59542,0 -30.69832,7.11303q-13.1029,7.11302 -21.71347,18.34409q-8.61047,11.23107 -12.72851,25.45713q-4.11804,14.22595 -4.11804,28.82639q0,15.7235 4.86681,30.32394q4.86681,14.60034 13.85167,25.83141q9.35924,11.23117 22.08775,17.96981q13.1029,6.36426 29.20078,6.36426q8.23619,0 16.84666,-1.87183q8.98485,-2.24622 16.84665,-6.36435q8.23609,-4.49243 14.97473,-11.23107q6.73864,-7.11303 10.85668,-17.22095l50.16548,29.57517q-5.98987,14.60044 -17.96971,26.20589q-11.60546,11.60536 -26.95457,19.46716q-15.34911,7.8618 -32.57015,11.97984q-17.22094,4.11804 -33.69321,4.11804q-28.8264,0 -53.16046,-11.60545q-23.95959,-11.97984 -41.55501,-31.447q-17.22094,-19.46725 -26.95457,-44.1756q-9.35924,-24.70836 -9.35924,-50.16548z" id="path5595"/>
   <path fill="#ffffff" fill-opacity="0.44606" stroke-width="1px" d="m753.91201,723.20915q0,17.22104 -7.11303,29.94956q-7.11303,12.72861 -19.46725,21.33908q-12.35413,8.23618 -28.8264,12.72861q-16.47227,4.11804 -34.81636,4.11804l-129.53184,0l0,-265.80221l147.87593,0q13.85167,0 25.08274,5.98987q11.23107,5.98987 19.09287,15.7235q7.8617,9.35924 11.97984,21.71346q4.49243,11.97984 4.49243,24.70836q0,19.09286 -9.73363,35.93942q-9.35924,16.84665 -28.45211,25.45712q22.83653,6.73865 35.93952,23.95968q13.47729,17.22095 13.47729,44.17551zm-62.51971,-12.35413q0,-12.35422 -7.11302,-20.96469q-7.11303,-8.61047 -17.96972,-8.61047l-70.75578,0l0,58.02718l68.13519,0q11.97983,0 19.84154,-7.8617q7.86179,-7.8618 7.86179,-20.59032zm-95.83852,-132.9011l0,55.03229l60.27339,0q10.10801,0 17.96981,-6.73864q7.8617,-6.73865 7.8617,-20.9647q0,-13.1029 -7.11303,-20.21592q-6.73864,-7.11303 -16.47227,-7.11303l-62.5196,0z" id="path5592"/>
   <path fill="#0039ff" fill-opacity="0.62974" fill-rule="evenodd" stroke="#ffffff" stroke-width="61.03179" stroke-linecap="round" stroke-linejoin="round" stroke-miterlimit="4" stroke-dashoffset="0" id="rect5187" d="m607.08567,283.92276l39.32639,0c108.69904,0 196.20765,87.50861 196.20765,196.20765l0,343.94054c0,108.69904 -87.50861,196.20762 -196.20764,196.20762l-39.3264,0c-108.69914,0 -196.20774,-87.50858 -196.20774,-196.20762l0,-343.94054c0,-108.69904 87.5086,-196.20765 196.20774,-196.20765z"/>
   <path fill="#ffffff" fill-opacity="0.44606" stroke-width="1px" d="m214.64744,516.30899l55.40668,0l96.96168,265.80221l-62.89409,0l-20.59031,-59.52472l-82.73563,0l-20.21592,59.52472l-62.89399,0l96.96158,-265.80221zm58.77605,163.97381l-31.07271,-93.9667l-31.82138,93.9667l62.89409,0z" id="path5588"/>
   <path fill="#e63e11" fill-rule="evenodd" stroke-linecap="round" stroke-linejoin="round" stroke-miterlimit="4" stroke-dashoffset="0" id="rect5193" d="m1668.9156,360.09743l90.6471,0c75.4498,0 136.1917,60.74132 136.1917,136.1912l0,313.93236c0,75.44988 -60.7419,136.1912 -136.1917,136.1912l-90.6471,0c-75.44982,0 -136.19172,-60.74132 -136.19172,-136.1912l0,-313.93236c0,-75.44988 60.7419,-136.1912 136.19172,-136.1912z"/>
   <path fill="#ffffff" fill-opacity="0.44606" stroke-width="1px" d="m1807.6445,728.20206l0,53.90914l-186.8108,0l0,-265.80221l183.441,0l0,53.90923l-122.0444,0l0,51.66292l104.824,0l0,49.79109l-104.824,0l0,56.52983l125.4142,0z" id="path5584"/>
   <path fill="#85bb2f" fill-rule="evenodd" stroke-width="15.94488" stroke-linecap="round" stroke-linejoin="round" stroke-miterlimit="4" stroke-dashoffset="0" id="rect5199" d="m607.08567,283.92276l39.32639,0c108.69904,0 196.20765,87.50861 196.20765,196.20765l0,343.94054c0,108.69904 -87.50861,196.20762 -196.20764,196.20762l-39.3264,0c-108.69914,0 -196.20774,-87.50858 -196.20774,-196.20762l0,-343.94054c0,-108.69904 87.5086,-196.20765 196.20774,-196.20765z"/>
   <path fill="#ffffff" stroke-width="1px" d="m759.63146,744.66767q0,22.70443 -8.60228,39.48599q-8.60229,16.78146 -23.54305,28.13368q-14.94084,10.85869 -34.86194,16.78156q-19.9211,5.42934 -42.10593,5.42934l-156.65208,0l0,-350.43803l178.83691,0q16.75177,0 30.3344,7.8972q13.58254,7.8972 23.09033,20.73021q9.5077,12.33928 14.48805,28.62731q5.43305,15.7943 5.43305,32.57586q0,25.17238 -11.77161,47.38319q-11.31881,22.2109 -34.40905,33.56311q27.61787,8.88427 43.46414,31.5887q16.29906,22.70444 16.29906,58.24188zm-75.60956,-16.28803q0,-16.28793 -8.60229,-27.64014q-8.60228,-11.35222 -21.73202,-11.35222l-85.57016,0l0,76.50413l82.40083,0q14.48805,0 23.99584,-10.36515q9.5078,-10.36506 9.5078,-27.14662zm-115.90447,-175.21896l0,72.55548l72.89304,0q12.22432,0 21.73212,-8.88436q9.50779,-8.88427 9.50779,-27.64015q0,-17.27509 -8.60229,-26.65299q-8.14958,-9.37798 -19.92119,-9.37798l-75.60947,0z" id="path5580"/>
   <path fill="#7d7d7d" stroke-width="1px" d="m155.97075,165.45441l0,76.82598l-31.03321,0l0,-134.35096l24.22101,0l62.63409,78.90755l0,-78.90755l31.03312,0l0,134.35096l-24.97787,0l-61.87714,-76.82598z" id="path5557"/>
   <path fill="#7d7d7d" stroke-width="1px" d="m326.4196,215.78872q7.94754,0 13.43512,-3.21692q5.48758,-3.406 8.89369,-8.89359q3.4061,-5.48758 4.73063,-12.48898q1.51381,-7.19059 1.51381,-14.57046l0,-68.68934l31.03321,0l0,68.68934q0,14.00279 -3.59529,26.1133q-3.4061,12.1105 -10.78598,21.19338q-7.19059,9.08288 -18.54423,14.38117q-11.16436,5.10921 -26.68096,5.10921q-16.08428,0 -27.43783,-5.48759q-11.35364,-5.48758 -18.54423,-14.57046q-7.0014,-9.27216 -10.4075,-21.38267q-3.21682,-12.1105 -3.21682,-25.35634l0,-68.68934l31.03322,0l0,68.68934q0,7.75826 1.51381,14.75965q1.51381,7.0014 4.91982,12.48898q3.4061,5.48759 8.7045,8.7044q5.48758,3.21692 13.43503,3.21692z" id="path5559"/>
   <path fill="#7d7d7d" stroke-width="1px" d="m512.258,135.17815l-40.87295,0l0,107.10224l-31.03321,0l0,-107.10224l-41.06214,0l0,-27.24872l112.9683,0l0,27.24872z" id="path5561"/>
   <path fill="#7d7d7d" stroke-width="1px" d="m527.41392,242.28039l0,-134.35096l60.55252,0q9.46135,0 17.4088,3.97377q8.13683,3.97377 14.00279,10.4075q5.86606,6.43373 9.08288,14.57046q3.4061,8.13673 3.4061,16.46275q0,6.24444 -1.51381,12.1105q-1.51381,5.67678 -4.35225,10.78588q-2.83834,5.10911 -7.00139,9.27217q-3.97368,3.97367 -9.08288,6.81211l29.5194,49.95582l-35.00689,0l-25.73491,-43.3329l-20.24724,0l0,43.3329l-31.03312,0zm31.03312,-70.39225l28.38406,0q5.48749,0 9.46126,-5.1092q3.97377,-5.2983 3.97377,-13.43503q0,-8.32602 -4.54144,-13.24593q-4.54143,-4.91983 -9.83973,-4.91983l-27.43792,0l0,36.70999z" id="path5563"/>
   <path fill="#7d7d7d" stroke-width="1px" d="m654.18098,242.28039l0,-134.35096l31.03321,0l0,134.35096l-31.03321,0z" id="path5565"/>
   <path fill="#7d7d7d" stroke-width="1px" d="m708.44766,203.8674l0,-27.24863l58.28175,0l0,27.24863l-58.28175,0z" id="path5567"/>
   <path fill="#7d7d7d" stroke-width="1px" d="m870.42868,147.28866q-0.56814,-0.75658 -3.97377,-2.83844q-3.4061,-2.08148 -8.51521,-4.35224q-5.1091,-2.27068 -11.16436,-3.97378q-6.05525,-1.703 -12.1105,-1.703q-16.65194,0 -16.65194,11.16436q0,3.4061 1.703,5.67687q1.89229,2.27067 5.2984,4.16296q3.59529,1.703 8.89359,3.21682q5.29839,1.51381 12.29979,3.4061q9.65054,2.64915 17.4088,5.86606q7.75835,3.02763 13.05665,7.75826q5.48758,4.54144 8.32601,11.16435q3.02763,6.62292 3.02763,15.89509q0,11.35355 -4.35225,19.30109q-4.16296,7.75835 -11.16436,12.67817q-7.00139,4.73072 -16.08427,7.0014q-9.08288,2.08148 -18.73342,2.08148q-7.37988,0 -15.13813,-1.13534q-7.75835,-1.13533 -15.13813,-3.21682q-7.37988,-2.27076 -14.38127,-5.29839q-6.81211,-3.02762 -12.67817,-7.00139l13.62431,-27.05935q0.75658,0.94595 4.91992,3.59529q4.16296,2.64915 10.21821,5.2983q6.24444,2.64915 13.81351,4.73073q7.56906,2.08148 15.32741,2.08148q16.46276,0 16.46276,-10.02903q0,-3.78458 -2.45996,-6.24453q-2.45996,-2.45987 -6.81221,-4.35216q-4.35215,-2.08148 -10.4075,-3.78458q-5.86596,-1.703 -12.86736,-3.78448q-9.27207,-2.83844 -16.08427,-6.05525q-6.81221,-3.40611 -11.35365,-7.75835q-4.35215,-4.35216 -6.62292,-10.02903q-2.08148,-5.67677 -2.08148,-13.24584q0,-10.59669 3.97377,-18.73342q3.97377,-8.13673 10.78588,-13.62431q6.81221,-5.67678 15.7059,-8.51521q9.08287,-2.83844 19.1119,-2.83844q7.00139,0 13.8135,1.32462q6.81221,1.32463 13.05665,3.40611q6.24444,2.08148 11.54284,4.73063q5.48758,2.64914 10.02902,5.29839l-13.62432,25.73482z" id="path5569"/>
   <path fill="#7d7d7d" stroke-width="1px" d="m898.47852,173.96962q0,-12.1105 4.54144,-24.03181q4.54144,-12.11051 13.24593,-21.57186q8.70441,-9.46136 21.19339,-15.32732q12.48888,-5.86606 28.38396,-5.86606q18.92271,0 32.73622,8.13673q14.00279,8.13673 20.8149,21.19338l-23.84253,16.65194q-2.27067,-5.29829 -5.86606,-8.7044q-3.406,-3.59529 -7.56906,-5.67677q-4.16296,-2.27077 -8.51521,-3.02763q-4.35215,-0.94595 -8.51512,-0.94595q-8.89368,0 -15.5166,3.59529q-6.62292,3.5953 -10.97517,9.27207q-4.35225,5.67687 -6.43373,12.86746q-2.08148,7.19059 -2.08148,14.57046q0,7.94754 2.45996,15.32732q2.45996,7.37987 7.0014,13.05665q4.73063,5.67687 11.16435,9.08287q6.62292,3.21692 14.75966,3.21692q4.16305,0 8.51521,-0.94596q4.54144,-1.13533 8.51521,-3.21691q4.16296,-2.27067 7.56906,-5.67677q3.4061,-3.5953 5.48758,-8.70441l25.35635,14.94894q-3.02763,7.37978 -9.08288,13.24584q-5.86597,5.86606 -13.62432,9.83974q-7.75825,3.97377 -16.46265,6.05525q-8.7045,2.08158 -17.03042,2.08158q-14.57046,0 -26.87025,-5.86606q-12.11051,-6.05526 -21.0041,-15.89509q-8.70449,-9.83973 -13.62431,-22.32871q-4.73073,-12.48898 -4.73073,-25.35635l0,-0.00038z" id="path5571"/>
   <path fill="#7d7d7d" stroke-width="1px" d="m1093.70138,243.41583q-14.94893,0 -27.24872,-5.86607q-12.2997,-5.86606 -21.0041,-15.32732q-8.70449,-9.65064 -13.62431,-21.95033q-4.73073,-12.29979 -4.73073,-25.35634q0,-13.24594 4.91992,-25.54563q5.1091,-12.29979 14.00279,-21.57186q9.08288,-9.46135 21.38257,-14.94894q12.29979,-5.67677 26.87025,-5.67677q14.94884,0 27.24863,5.86606q12.2997,5.86596 21.0041,15.51651q8.70449,9.65064 13.43512,21.95033q4.73073,12.2997 4.73073,24.97797q0,13.24583 -5.1092,25.54553q-4.91982,12.29979 -13.81351,21.76114q-8.89369,9.27207 -21.19338,14.94885q-12.29979,5.67687 -26.87016,5.67687zm-35.00698,-68.12168q0,7.75835 2.27067,15.13813q2.27077,7.19068 6.62302,12.86746q4.54144,5.67677 11.16436,9.08287q6.62292,3.40611 15.13812,3.40611q8.89369,0 15.51661,-3.5953q6.62292,-3.59539 10.97517,-9.27216q4.35215,-5.86597 6.43363,-13.05665q2.27077,-7.37978 2.27077,-14.94884q0,-7.75835 -2.27077,-14.94894q-2.27067,-7.37987 -6.81211,-12.86746q-4.54144,-5.67677 -11.16436,-8.89359q-6.43373,-3.4061 -14.94894,-3.4061q-8.89368,0 -15.5166,3.59529q-6.43373,3.4061 -10.97517,9.08288q-4.35215,5.67677 -6.62292,13.05665q-2.08148,7.19058 -2.08148,14.75965z" id="path5573"/>
   <path fill="#7d7d7d" stroke-width="1px" d="m1178.61985,242.28039l0,-134.35096l60.55251,0q9.46136,0 17.4089,3.97377q8.13673,3.97377 14.00279,10.4075q5.86597,6.43373 9.08288,14.57046q3.40601,8.13673 3.40601,16.46275q0,6.24444 -1.51382,12.1105q-1.51381,5.67678 -4.35215,10.78588q-2.83843,5.10911 -7.0014,9.27217q-3.97377,3.97367 -9.08287,6.81211l29.5193,49.95582l-35.00689,0l-25.73482,-43.3329l-20.24733,0l0,43.3329l-31.03311,0zm31.03311,-70.39225l28.38407,0q5.48758,0 9.46135,-5.1092q3.97377,-5.2983 3.97377,-13.43503q0,-8.32602 -4.54144,-13.24593q-4.54144,-4.91983 -9.83983,-4.91983l-27.43792,0l0,36.70999z" id="path5575"/>
   <path fill="#7d7d7d" stroke-width="1px" d="m1399.81107,215.03176l0,27.24863l-94.42417,0l0,-134.35096l92.72107,0l0,27.24872l-61.68786,0l0,26.11321l52.98346,0l0,25.16715l-52.98346,0l0,28.57325l63.39096,0z" id="path5577"/>
  </g>
 </g>
</svg>