<svg width="142.26" height="142.26" xmlns="http://www.w3.org/2000/svg">

 <title>icon-palm-free-disc</title>
 <g>
  <title>background</title>
  <rect fill="#000000" opacity="0"  id="canvas_background" height="144.26" width="144.26" y="-1" x="-1"/>
 </g>
 <g>
  <title>Layer 1</title>
  <circle id="svg_1" r="71.13" cy="71.13" cx="71.13" fill="#f2e2d2"/>
  <path fill="#b06955" id="svg_2" d="m53.78001,49.24c0.21,0.28 0.46,0.55 0.7,0.82l-14.91,0a0.95,0.95 0 0 0 -0.92,0.72l0,0l0,0.48l0,0a1,1 0 0 0 0.92,0.71l64.23,0a1,1 0 1 0 0,-1.91l-11.45,0c0,-1.24 -0.08,-2.16 -0.08,-2.44c0,-0.67 -0.65,-0.62 -0.74,-0.3s-0.19,0.65 -0.3,1c-0.25,0.78 -0.43,1.3 -0.6,1.76l-1.56,0a25.49,25.49 0 0 0 0.7,-2.95a32.32,32.32 0 0 0 0.5,-4.07a27.78,27.78 0 0 0 0,-3.53a13.72,13.72 0 0 0 -0.14,-1.52c-0.14,-0.85 -0.66,-0.59 -0.72,-0.18c-0.11,0.76 -0.24,1.51 -0.39,2.23a48.62,48.62 0 0 1 -3.09,10l-1.22,0q-0.05,-0.57 -0.1,-1.15c-0.07,-0.81 -0.14,-1.65 -0.24,-2.47c1.21,-1.23 2.51,-3.5 3.23,-10.66a43.09,43.09 0 0 0 -0.25,-7.55c-0.06,-0.65 -0.61,-0.51 -0.63,0a63.66,63.66 0 0 1 -1,7.18a53.52,53.52 0 0 1 -1.51,5.59a18.39,18.39 0 0 0 -0.39,1.85c-0.23,-1.53 -0.53,-3.32 -0.89,-5.12c0,-0.12 -0.06,-0.24 -0.08,-0.37a8.33,8.33 0 0 0 1.29,-2.32a12.06,12.06 0 0 0 0.79,-3.71c0.24,-4.54 -1.34,-9.57 -1.95,-11.6c-0.43,-1.41 -0.84,-0.68 -0.69,0.17a48.77,48.77 0 0 1 0.36,7c-0.14,3.17 -0.38,5.37 -0.42,5.86s-0.07,1 -0.08,1.51c-0.41,-1.77 -0.8,-3.37 -1.21,-4.84c0,0 -0.11,-0.4 -0.24,-0.81l0.17,-0.29c0.25,-0.42 1.15,-2.57 0.51,-6.39a19.28,19.28 0 0 0 -1.55,-4.59l-0.09,-0.19a49.38,49.38 0 0 0 -3.61,-6.22c-0.56,-0.83 -1,-0.34 -0.64,0.42a66.87,66.87 0 0 1 2.36,6.54a54.87,54.87 0 0 1 1.53,7.22l-0.29,-0.77a84.24,84.24 0 0 0 -5,-10.79c-1,-1.9 -2.63,-4.77 -3.73,-6.58c-0.72,-1.18 -1.05,-1.18 -1.16,-1.18a0.33,0.33 0 0 0 -0.28,0.16a2.17,2.17 0 0 0 0.43,1.66c1,1.88 2.38,4.89 3.18,6.85l0.34,0.82c1.61,3.94 2.68,6.55 3.89,10c0.35,1 0.75,2.2 1.19,3.59l0,0.07l0.06,0.22c-0.61,-0.59 -1.23,-1.22 -1.85,-1.88a67.07,67.07 0 0 1 -6,-7.48a61.75,61.75 0 0 1 -5,-8.18c-0.26,-0.49 -0.48,-1 -0.68,-1.37l-0.25,-0.52a1.14,1.14 0 0 0 -0.86,-0.81a0.5,0.5 0 0 0 -0.39,0.19a1.09,1.09 0 0 0 -0.19,0.86l0,0.16a27,27 0 0 0 4.86,12c2.29,3.1 6,7.1 10.76,8.56l0.05,0c0.52,1.92 1.11,4.18 1.6,6.5l0,0.22c-0.73,-0.47 -1.63,-1.08 -2.65,-1.83a81,81 0 0 1 -8.91,-7.48a74.6,74.6 0 0 1 -7.87,-8.55c-1,-1.26 -1.78,-2.36 -2.27,-3.08c-0.38,-0.55 -0.84,-0.66 -1.07,-0.35a1.21,1.21 0 0 0 0,1l0,0.16a30.22,30.22 0 0 0 8.67,13.8c5.26,4.9 12.23,7.2 14.38,7.82c0.44,2.27 0.82,4.51 1.12,6.68c-0.91,-0.45 -2.18,-1.12 -3.7,-2a85.81,85.81 0 0 1 -10.12,-6.84a78.44,78.44 0 0 1 -9.14,-8c-1.19,-1.2 -2.11,-2.26 -2.7,-3c-0.45,-0.52 -0.93,-0.6 -1.15,-0.27a1.21,1.21 0 0 0 0.06,1.08l0,0.09a31.66,31.66 0 0 0 10.55,13.34c7.37,5.48 13.76,6.63 16.32,6.87c0.09,0.7 0.15,1.42 0.21,2.12q0,0.52 0.09,1l-8.76,0l-0.47,-0.29c-1.89,-1.15 -3.57,-2.23 -5.13,-3.33a83.53,83.53 0 0 1 -10.24,-8.09c-1.34,-1.22 -2.4,-2.31 -3.07,-3c-0.48,-0.5 -1,-0.55 -1.21,-0.2a1.52,1.52 0 0 0 0.18,1.38a33.67,33.67 0 0 0 6.48,8.64a30.12,30.12 0 0 0 5.92,4.9l-6.82,0c-1.37,-1 -2.48,-1.92 -3.38,-2.69c-1.47,-1.23 -2.54,-2.23 -3.18,-2.85s-1,-0.54 -1.2,-0.2a1.24,1.24 0 0 0 0.19,1.15a24.24,24.24 0 0 0 2.59,3.84zm49,22.91l0,-15.22l-3.13,0l-4.36,6.77l-4.36,-6.77l-3.13,0l0,15.22l3,0l0,-10l4.25,6.36l0.34,0l4.29,-6.41l0,10l3.07,0l0.03,0.05zm-42.65,14.9l2.94,0l3.62,5.14l3.64,0l-4.07,-5.72a4.63,4.63 0 0 0 3.37,-4.62c0,-3 -2.19,-4.91 -5.71,-4.91l-6.85,0l0,15.22l3.07,0l0,-5.14l-0.01,0.03zm0,-7.25l3.53,0c1.29,0 2.82,0.39 2.82,2.23c0,1.39 -1.07,2.25 -2.8,2.25l-3.51,0l0,-4.48l-0.04,0zm13,-22.87l0,15.22l10.82,0l0,-2.83l-7.75,0l0,-12.39l-3.07,0zm29.79,32.47l-8.45,0l0,-3.49l7.39,0l0,-2.79l-7.39,0l0,-3.36l8.34,0l0,-2.79l-11.39,0l0,15.22l11.51,0l0,-2.79l-0.01,0zm-16.11,0l-8.45,0l0,-3.49l7.39,0l0,-2.79l-7.39,0l0,-3.36l8.34,0l0,-2.79l-11.39,0l0,15.22l11.51,0l0,-2.79l-0.01,0zm-22,-20.8l1.5,3.56l3.26,0l-6.7,-15.33l-2.71,0l-6.7,15.33l3.17,0l1.52,-3.56l6.66,0zm-3.34,-7.83l2.19,5.06l-4.36,0l2.17,-5.06zm3.6,59.2a49.12,49.12 0 0 1 -15.81,-92.5a0.87,0.87 0 0 0 -0.79,-1.56a50.87,50.87 0 0 0 16.34,95.79l0.11,0a0.87,0.87 0 0 0 0.15,-1.74l0,0.01zm27.09,-95.18a0.87,0.87 0 1 0 -0.71,1.6a49.12,49.12 0 0 1 -15,93.76a0.87,0.87 0 0 0 0.09,1.74l0.09,0a50.87,50.87 0 0 0 15.5,-97.11l0.03,0.01zm-8.09,83.24a21,21 0 0 0 5.86,-9c0.08,-0.23 0.14,-0.42 0.2,-0.59l13.68,0a1,1 0 1 0 0,-1.91l-64.24,0a1,1 0 0 0 -0.92,0.72l0,0l0,0.22l0,0a1,1 0 0 0 1,1l12.81,0l0.09,0.26l0,0a14.87,14.87 0 0 0 1.4,2.94a20.22,20.22 0 0 0 2.72,3.8l0.61,0.6a16.3,16.3 0 0 0 1.28,1.19l2.14,1.63a24.39,24.39 0 0 0 4.73,2.38a18,18 0 0 0 4.55,1.08a13.48,13.48 0 0 0 1.54,0.09c0.4,0 0.8,0 1.19,-0.06c-0.84,2.29 -1.54,4.08 -2.23,5.77c-0.11,0.27 -0.23,0.53 -0.34,0.8l-0.17,0.39c-2.17,5 -2.28,5.27 -4.25,9.17a1.3,1.3 0 1 0 2.32,1.2a78.27,78.27 0 0 0 3.62,-7.68l1,-2.41l0.21,-0.47c0.11,-0.26 0.23,-0.51 0.33,-0.77c0.91,-2.25 1.73,-4.48 2.41,-6.36c1.46,0.03 4.54,-0.29 8.46,-3.99zm-5,-6.68c0.17,-0.6 0.31,-1.21 0.45,-1.8c0.09,-0.36 0.17,-0.72 0.26,-1.08l2.34,0c-0.34,0.48 -0.71,0.85 -1.41,1.68c-0.85,1 -1.56,1.89 -2,2.46l0.36,-1.26zm3.66,0.66a23.56,23.56 0 0 0 2.7,-3.54l3.37,0c-0.22,0.24 -0.44,0.5 -0.66,0.77a41.12,41.12 0 0 1 -5.26,5.95a62.21,62.21 0 0 1 -6.37,4.29c0.48,-1.4 0.92,-2.73 1.33,-4a14.58,14.58 0 0 0 4.92,-3.48l-0.03,0.01zm-9.52,8.9c-0.84,-0.23 -1.67,-0.49 -2.51,-0.81a39.81,39.81 0 0 1 -8.06,-4.25a44.44,44.44 0 0 1 -7.1,-5.74c-0.65,-0.6 -1.17,-1.17 -1.6,-1.64l7,0l0.06,0.06l0.17,0.16c0.49,0.42 1,0.82 1.52,1.2l0.6,0.46a11.41,11.41 0 0 0 1.45,1c0.26,0.16 0.51,0.31 0.77,0.48a24.75,24.75 0 0 0 4.45,2.12a19.74,19.74 0 0 0 5.32,1c-0.59,1.83 -1.26,3.79 -2.04,5.95l-0.03,0.01zm-2.22,-9.1c-1.35,-0.88 -2.91,-2 -4.53,-3.34l10.63,0l-0.19,0.78c-0.11,0.46 -0.22,0.92 -0.35,1.38c-0.32,1.14 -0.67,2.32 -1.06,3.54a29,29 0 0 1 -4.42,-2.36l-0.08,0zm-24.42,-44.87l-6.05,0l0,15.22l3.07,0l0,-4.74l2.69,0c3.73,0 6.14,-2.08 6.14,-5.29s-2.27,-5.2 -5.82,-5.2l-0.03,0.01zm-0.21,7.67l-2.77,0l0,-4.84l2.77,0c1.1,0 2.94,0.31 2.94,2.42c0.03,1.46 -1.12,2.41 -2.91,2.41l-0.03,0.01zm5.83,15.2l0,-2.84l-11.42,0l0,15.22l3.07,0l0,-6l7.44,0l0,-2.83l-7.44,0l0,-3.55l8.38,0l-0.03,0z" />
 </g>
</svg>